<?xml version="1.0" encoding="UTF-8" standalone="no"?>
<svg
   xmlns:dc="http://purl.org/dc/elements/1.1/"
   xmlns:cc="http://creativecommons.org/ns#"
   xmlns:rdf="http://www.w3.org/1999/02/22-rdf-syntax-ns#"
   xmlns:svg="http://www.w3.org/2000/svg"
   xmlns="http://www.w3.org/2000/svg"
   viewBox="0 0 4091.8933 2666.6667"
   height="2666.6667"
   width="4091.8933"
   xml:space="preserve"
   id="svg2"
   version="1.1"><metadata
     id="metadata8"><rdf:RDF><cc:Work
         rdf:about=""><dc:format>image/svg+xml</dc:format><dc:type
           rdf:resource="http://purl.org/dc/dcmitype/StillImage" /></cc:Work></rdf:RDF></metadata><defs
     id="defs6" /><g
     transform="matrix(1.3333333,0,0,-1.3333333,0,2666.6667)"
     id="g10"><g
       transform="scale(0.1)"
       id="g12"><g
         transform="scale(1.88276)"
         id="g14"><path
           id="path16"
           style="fill:transparent;fill-opacity:1;fill-rule:nonzero;stroke:none"
           d="M 16300.1,0 H 0 V 10622.7 H 16300.1 V 0" /></g><g
         transform="scale(1.85102)"
         id="g18"><path
           id="path20"
           style="fill:#e1edfd;fill-opacity:1;fill-rule:nonzero;stroke:none"
           d="m 14215,1032.78 c 1550.1,1247.53 2085,5102.67 147.9,4885.29 333.4,4020.2 -3800.1,5413.73 -5098.86,2861.81 C 8318.61,10618.8 5792.86,10327.2 5230.88,9128.07 3491.53,9776.23 1830.73,8527.37 1224.06,6712.86 634.596,4949.87 1268.9,2095.5 2659.19,1055.04 c 7180.04,0 11555.81,-22.26 11555.81,-22.26" /></g><g
         transform="scale(1.59631)"
         id="g22"><path
           id="path24"
           style="fill:#86b1f2;fill-opacity:1;fill-rule:nonzero;stroke:none"
           d="m 16300,1197.57 c 0,0 -2002.2,2659.57 -3262.2,3067.45 -1260,407.87 -72.5,-1212.17 -72.5,-1212.17 0,0 -2216.5,2356.74 -3055.34,2223.75 -918.43,-145.59 -222.39,-1422.22 -222.39,-1422.22 0,0 -624.43,544.19 -1651.43,544.19 -1026.92,0 793.77,-3141.23 793.77,-3141.23 L 16300,1197.57" /></g><path
         id="path26"
         style="fill:#9bc1f9;fill-opacity:1;fill-rule:nonzero;stroke:none"
         d="m 15545.5,2007.1 c 0,0 -1910.9,5842.7 -4616.6,5167 -2192.69,-547.5 -633.8,-3487.3 -767.4,-3353.7 -133.7,133.7 -1309.71,2129.1 -3212.51,2129.1 -1902.8,0 584.09,-2693.1 584.09,-2693.1 0,0 -4054.11,1266.1 -4371.56,-63.4 C 2898.06,2089.6 4371.5,2007.1 4371.5,2007.1 h 11174" /><g
         transform="scale(1.68239)"
         id="g28"><path
           id="path30"
           style="fill:#466eb6;fill-opacity:1;fill-rule:nonzero;stroke:none"
           d="m 15924.8,3529.73 c 239.4,-753.68 348.5,-1548.86 316.8,-2354.02 h 30.2 c 28.2,789.11 -79.1,1582.45 -318.1,2335.24 -55.5,174.99 -111.2,379.76 -274.5,486.04 -3.1,2.02 -5.9,-2.86 -2.9,-5 146.9,-105.38 196.6,-298.68 248.5,-462.26" /></g><g
         transform="scale(1.66538)"
         id="g32"><path
           id="path34"
           style="fill:#466eb6;fill-opacity:1;fill-rule:nonzero;stroke:none"
           d="m 16300,1187.72 c -295.4,756.88 -704,1492.87 -1239.9,2181.24 -5.3,6.84 -17.5,-2.4 -12.2,-9.43 506.1,-660.87 914.9,-1390.73 1214.2,-2171.81 h 37.9" /></g><g
         transform="scale(1.65727)"
         id="g36"><path
           id="path38"
           style="fill:#466eb6;fill-opacity:1;fill-rule:nonzero;stroke:none"
           d="m 16236.6,3998.44 c -15,-12.97 -67.3,-43.2 -94,-94.19 -30,-47.06 -34.4,-114.94 -32.4,-113.01 2.7,-2.12 -36.5,54.42 -34.1,126.95 -3,71.02 35.8,157.97 69.4,181.26 62.3,56.18 141.3,42.42 147.4,5.43 7.1,-37.05 -25,-76.21 -56.3,-106.44" /></g><g
         transform="scale(1.64969)"
         id="g40"><path
           id="path42"
           style="fill:#466eb6;fill-opacity:1;fill-rule:nonzero;stroke:none"
           d="m 16053.8,3458.23 c 18.6,6.91 70.6,38.19 128.4,36.92 56,3.57 117.8,-25.46 115.2,-26.31 0.5,-3.46 -30.2,58.56 -95.2,91.59 -61,37.1 -156.3,45.22 -193,26.92 -79.8,-27.58 -105.9,-103.66 -76.4,-127 29.1,-24.24 79.2,-15.03 121,-2.12" /></g><g
         transform="scale(1.65807)"
         id="g44"><path
           id="path46"
           style="fill:#466eb6;fill-opacity:1;fill-rule:nonzero;stroke:none"
           d="m 16055,3144.91 c 18.5,6.88 70.2,38.06 127.8,36.74 55.7,3.55 117.2,-25.34 114.5,-26.12 0.6,-3.44 -29.9,58.2 -94.6,91.07 -60.7,36.91 -155.5,44.99 -192.1,26.84 -79.3,-27.44 -105.4,-103.19 -76,-126.41 29,-24.07 78.8,-14.9 120.4,-2.12" /></g><g
         transform="scale(1.58718)"
         id="g48"><path
           id="path50"
           style="fill:#466eb6;fill-opacity:1;fill-rule:nonzero;stroke:none"
           d="m 16044,2817.45 c 19.4,7.19 73.4,39.7 133.5,38.37 58.2,3.72 122.5,-26.46 119.7,-27.34 0.6,-3.59 -31.3,60.8 -98.8,95.2 -63.5,38.5 -162.5,47 -200.8,27.97 -82.8,-28.66 -110,-107.73 -79.3,-131.99 30.3,-25.2 82.3,-15.63 125.7,-2.21" /></g><g
         transform="scale(1.56582)"
         id="g52"><path
           id="path54"
           style="fill:#466eb6;fill-opacity:1;fill-rule:nonzero;stroke:none"
           d="m 16040.5,3190.41 c 19.7,7.28 74.4,40.3 135.3,38.9 59,3.77 124.2,-26.83 121.4,-27.72 0.6,-3.64 -31.7,61.69 -100.2,96.5 -64.3,39.09 -164.7,47.64 -203.5,28.42 -84,-29.06 -111.6,-109.27 -80.4,-133.86 30.7,-25.48 83.4,-15.78 127.4,-2.24" /></g><g
         transform="scale(1.6719)"
         id="g56"><path
           id="path58"
           style="fill:#466eb6;fill-opacity:1;fill-rule:nonzero;stroke:none"
           d="m 16227.1,3620.8 c -16.7,-10.35 -72.6,-31.76 -106.7,-77.52 -36.7,-41.39 -51.7,-107.12 -49.4,-105.57 2.3,-2.51 -27.3,58.98 -13.5,129.62 8.2,69.92 59.7,149.05 96.2,166.57 69.8,45.28 144.9,19.44 145.1,-17.7 1.2,-37.38 -36.4,-70.76 -71.7,-95.4" /></g><g
         transform="scale(1.68926)"
         id="g60"><path
           id="path62"
           style="fill:#466eb6;fill-opacity:1;fill-rule:nonzero;stroke:none"
           d="m 16201.8,3240.95 c -20.8,-4.8 -89.6,-5.27 -134.7,-44.52 -47.8,-32.85 -72,-104.54 -69.2,-103.71 2.6,-4.09 -26.7,82.58 -3.6,160.66 16.6,79.74 85.7,150.96 130.9,155.45 87.7,22.62 174.8,-41.91 171.5,-86.3 -2.2,-45.11 -50.3,-68.02 -94.9,-81.58" /></g><g
         transform="scale(1.7031)"
         id="g64"><path
           id="path66"
           style="fill:#466eb6;fill-opacity:1;fill-rule:nonzero;stroke:none"
           d="m 16183,2726.67 c -21.3,-1.18 -88.6,9.8 -139.1,-21.08 -52.3,-24.13 -87.9,-90.19 -85,-89.84 1.8,-4.4 -12.4,85.2 23.3,157.66 29.4,75.27 108.9,133.34 153.9,130.17 89.5,7.52 163.9,-70.11 153.2,-112.97 -9.7,-43.74 -60.5,-58.13 -106.3,-63.94" /></g><g
         transform="scale(1.61985)"
         id="g68"><path
           id="path70"
           style="fill:#466eb6;fill-opacity:1;fill-rule:nonzero;stroke:none"
           d="m 16223.6,2743.7 c -17.4,-5.3 -75.8,-9.75 -111.6,-45.74 -38.7,-30.74 -54.9,-92.97 -52.6,-92.11 2.4,-3.27 -27.6,68.47 -12.6,136.07 9.3,68.64 63.7,133.16 101.8,139.64 73.1,24.45 150.8,-25.13 150.6,-63.03 0.8,-38.4 -38.6,-60.69 -75.6,-74.83" /></g><g
         transform="scale(1.62363)"
         id="g72"><path
           id="path74"
           style="fill:#466eb6;fill-opacity:1;fill-rule:nonzero;stroke:none"
           d="m 16152.5,4081.59 c 10.9,4.99 40.7,26.11 75.5,27.9 33.5,4.68 72,-10.04 70.5,-10.65 0.4,-2.04 -20.8,33.87 -61.3,50.81 -38.3,19.58 -96,20.26 -117.3,7.64 -46.7,-20.15 -59.1,-67.08 -40.2,-79.76 18.6,-13.25 48.3,-5.49 72.8,4.06" /></g><g
         transform="scale(1.62354)"
         id="g76"><path
           id="path78"
           style="fill:#466eb6;fill-opacity:1;fill-rule:nonzero;stroke:none"
           d="m 16290,4249.23 c -3.5,-11.45 -20.5,-43.85 -17.7,-78.53 -0.1,-33.88 19.5,-70.03 19.9,-68.43 2.1,-0.18 -36.2,16.08 -58.4,54.02 -24.5,35.42 -32.8,92.45 -23.1,115.24 13.7,48.9 58.6,67.38 73.7,50.38 15.6,-16.63 11.8,-47.05 5.6,-72.68" /></g><g
         transform="scale(1.54217)"
         id="g80"><path
           id="path82"
           style="fill:#466eb6;fill-opacity:1;fill-rule:nonzero;stroke:none"
           d="m 16144.7,3561.66 c 11.5,5.26 42.9,27.5 79.5,29.38 35.3,4.93 75.8,-10.57 74.2,-11.22 0.4,-2.14 -21.9,35.6 -64.5,53.5 -40.4,20.62 -101.1,21.27 -123.5,8.04 -49.2,-21.2 -62.1,-70.62 -42.3,-83.97 19.5,-14.01 50.8,-5.78 76.6,4.27" /></g><g
         transform="scale(1.54434)"
         id="g84"><path
           id="path86"
           style="fill:#466eb6;fill-opacity:1;fill-rule:nonzero;stroke:none"
           d="m 16284.7,3729.43 c -4.7,-11.72 -25.2,-44.16 -25.3,-80.81 -3,-35.42 14.4,-75.05 15,-73.36 2.2,-0.39 -36.6,19.94 -56.6,61.57 -22.6,39.18 -26.4,99.72 -14.3,122.71 18.6,50.12 67.2,65.6 81.6,46.49 14.9,-18.77 8.4,-50.37 -0.4,-76.6" /></g><g
         transform="scale(1.26991)"
         id="g88"><path
           id="path90"
           style="fill:#466eb6;fill-opacity:1;fill-rule:nonzero;stroke:none"
           d="m 14602.9,3932.79 c 543.2,-539.49 1016.8,-1150.87 1370.9,-1830.84 99.3,-190.88 183.4,-387.27 270.1,-584.05 11.5,-26.07 56.1,-7.48 46.4,19.53 -9.7,27.01 -19.4,53.94 -29,80.95 -5.7,15.83 -34.4,15.04 -31.9,-4.33 3.7,-27.8 7.4,-55.52 11,-83.31 16.7,2.2 33.3,4.48 49.9,6.69 -134.6,355.53 -321.6,698.15 -522.6,1019.99 -602.8,964.47 -1226.9,1437.02 -1164.8,1375.37 v 0" /></g><g
         transform="scale(1.1953)"
         id="g92"><path
           id="path94"
           style="fill:#466eb6;fill-opacity:1;fill-rule:nonzero;stroke:none"
           d="m 16230.6,3867.23 c -17,-19.41 -79.2,-68.19 -104.3,-138.96 -30.3,-66.51 -23.7,-155.11 -21.4,-152.35 3.9,-2.18 -57.2,63.83 -67.3,158.12 -16.8,91.36 17.4,210.99 56.7,247.22 70.3,84.16 175.1,80.82 189.7,33.96 16,-46.6 -18.4,-103.15 -53.4,-147.99" /></g><g
         transform="scale(1.16656)"
         id="g96"><path
           id="path98"
           style="fill:#466eb6;fill-opacity:1;fill-rule:nonzero;stroke:none"
           d="m 16228.9,4392.3 c -17.4,-19.97 -81.1,-69.86 -106.9,-142.47 -31,-68.15 -24.1,-158.93 -21.9,-156.01 4,-2.32 -58.6,65.31 -68.9,161.93 -17.3,93.6 17.8,216.27 58,253.39 72.2,86.15 179.4,82.72 194.4,34.8 16.4,-47.74 -18.8,-105.78 -54.7,-151.64" /></g><g
         transform="scale(1.15329)"
         id="g100"><path
           id="path102"
           style="fill:#466eb6;fill-opacity:1;fill-rule:nonzero;stroke:none"
           d="m 15976.7,4063.6 c 23,13.79 83.9,68.41 160.8,81.33 73.3,18.9 162.5,-3.9 159.2,-5.72 1.6,-4.42 -54.7,69.88 -149.1,97.28 -90.2,33.65 -218.5,20.38 -262.6,-13.18 -98.6,-56.7 -114,-164.05 -68.9,-187.55 44.6,-24.71 108.6,0.18 160.6,27.84" /></g><g
         transform="scale(1.18378)"
         id="g104"><path
           id="path106"
           style="fill:#466eb6;fill-opacity:1;fill-rule:nonzero;stroke:none"
           d="m 15985,3499.3 c 22.4,13.6 81.8,66.74 156.6,79.32 71.4,18.42 158.4,-3.8 155.2,-5.57 1.5,-4.31 -53.4,68.09 -145.4,94.78 -87.8,32.77 -212.8,19.85 -255.8,-12.84 -96,-55.16 -111.1,-159.91 -67.1,-182.72 43.5,-24.08 105.8,0.17 156.5,27.03" /></g><g
         transform="scale(1.20607)"
         id="g108"><path
           id="path110"
           style="fill:#466eb6;fill-opacity:1;fill-rule:nonzero;stroke:none"
           d="m 15990.9,3049.4 c 22,13.27 80.3,65.5 153.7,77.77 70.1,18.08 155.4,-3.73 152.3,-5.39 1.5,-4.31 -52.4,66.83 -142.7,92.95 -86.2,32.17 -208.9,19.48 -251,-12.6 -94.3,-54.15 -109.1,-156.88 -65.9,-179.26 42.7,-23.63 103.8,0.08 153.6,26.53" /></g><g
         transform="scale(1.22463)"
         id="g112"><path
           id="path114"
           style="fill:#466eb6;fill-opacity:1;fill-rule:nonzero;stroke:none"
           d="m 15995.6,2623.73 c 21.6,13.06 79,64.51 151.4,76.59 69,17.8 153,-3.67 150,-5.3 1.4,-4.17 -51.6,65.81 -140.6,91.53 -84.9,31.77 -205.7,19.19 -247.2,-12.33 -92.9,-53.4 -107.4,-154.57 -64.9,-176.62 42,-23.27 102.3,0.16 151.3,26.13" /></g><g
         transform="scale(1.21909)"
         id="g116"><path
           id="path118"
           style="fill:#466eb6;fill-opacity:1;fill-rule:nonzero;stroke:none"
           d="m 16232,3375.63 c -16.7,-19.12 -77.6,-66.86 -102.3,-136.33 -29.7,-65.13 -23.1,-152.08 -21,-149.3 3.9,-2.13 -56,62.51 -65.9,155.04 -16.5,89.49 17,206.87 55.5,242.39 69.1,82.52 171.7,79.16 186.1,33.31 15.6,-45.69 -18.1,-101.23 -52.4,-145.11" /></g><g
         transform="scale(1.2402)"
         id="g120"><path
           id="path122"
           style="fill:#466eb6;fill-opacity:1;fill-rule:nonzero;stroke:none"
           d="m 16233.2,2906.56 c -16.5,-18.79 -76.3,-65.72 -100.6,-134.01 -29.2,-64.03 -22.8,-149.5 -20.6,-146.76 3.8,-2.17 -55.2,61.45 -64.9,152.4 -16.2,87.97 16.8,203.35 54.6,238.27 67.9,81.12 168.8,77.81 182.9,32.74 15.4,-44.92 -17.7,-99.51 -51.4,-142.64" /></g><g
         transform="scale(1.19283)"
         id="g124"><path
           id="path126"
           style="fill:#466eb6;fill-opacity:1;fill-rule:nonzero;stroke:none"
           d="m 15820.7,2326.14 c 33.4,-20.79 118.1,-91.8 161.6,-135.89 119.1,-120.81 227,-292.92 285.8,-487.16 3.8,-12.33 5.1,-23.64 16.5,-30.85 2.7,-1.68 6.9,-0.59 8.4,2.26 7,13 1.2,24.98 -2.6,38.56 -27.8,97.5 -84.6,219.82 -170.2,338.78 -144.9,201.36 -252.4,247.89 -298.8,275.48 -0.8,0.41 -1.4,-0.68 -0.7,-1.18 v 0" /></g><g
         transform="scale(1.16787)"
         id="g128"><path
           id="path130"
           style="fill:#466eb6;fill-opacity:1;fill-rule:nonzero;stroke:none"
           d="m 16038.5,2253.26 c 19.4,8.82 72.3,46.32 133.9,49.49 59.4,8.22 127.6,-17.89 124.9,-19.01 0.8,-3.59 -36.8,60.02 -108.6,90.17 -67.9,34.68 -170.2,35.79 -207.9,13.44 -82.7,-35.71 -104.7,-118.85 -71.3,-141.37 32.9,-23.46 85.6,-9.76 129,7.28" /></g><g
         transform="scale(1.16775)"
         id="g132"><path
           id="path134"
           style="fill:#466eb6;fill-opacity:1;fill-rule:nonzero;stroke:none"
           d="m 16282.2,2550.19 c -6.2,-20.29 -36.3,-77.75 -31.3,-139.24 -0.3,-59.94 34.5,-124.08 35.3,-121.26 3.7,-0.34 -64.3,28.52 -103.7,95.74 -43.4,62.77 -58.1,163.91 -40.9,204.24 24.4,86.75 103.9,119.46 130.7,89.4 27.7,-29.54 21,-83.49 9.9,-128.88" /></g><path
         id="path136"
         style="fill:#466eb6;fill-opacity:1;fill-rule:nonzero;stroke:none"
         d="m 2973.25,7448.5 c 100.56,-60.6 192.74,-142.2 284.51,-215.1 499.36,-396.6 1006,-780.5 1694.83,-1587.5 921,-1079 1608.97,-2304.2 2028.5,-3642.4 15.02,-47.9 90.7,-27.3 75.42,20.8 C 6783.57,2885.1 6396.47,3708.5 5909.65,4469 4594.43,6523.7 2955.51,7459.1 2973.25,7448.5 v 0" /><path
         id="path138"
         style="fill:#466eb6;fill-opacity:1;fill-rule:nonzero;stroke:none"
         d="m 5460.03,7201 c 110.07,-724.9 488.3,-1376.7 749.01,-2053.2 697.39,-1809.5 811.87,-3187.7 874.61,-3340.4 6.3,-15.3 26.27,-12.6 28.3,3.9 17.36,141.7 -136.38,1134.2 -439.35,2166.4 -503.75,1716.2 -1031.11,2386.5 -1188.75,3229.8 -2.95,15.8 -26.16,8.9 -23.82,-6.5 v 0" /><path
         id="path140"
         style="fill:#466eb6;fill-opacity:1;fill-rule:nonzero;stroke:none"
         d="m 3801.89,7411.5 c -18.81,-37.6 -96.44,-139.5 -106.94,-261.1 -20.38,-116.8 26.37,-253.2 28.72,-247.9 7.13,-1.9 -115.93,76.8 -170.4,220.8 -63.83,136.5 -59.07,338.5 -12.25,411.4 76.16,161 241.94,198.5 284.15,131.1 44.16,-66.7 13.32,-169.6 -23.28,-254.3" /><path
         id="path142"
         style="fill:#466eb6;fill-opacity:1;fill-rule:nonzero;stroke:none"
         d="m 4944.74,6263.9 c -14.15,-39.4 -78.9,-149.3 -74.92,-270.8 -6.33,-117.9 56.03,-247.4 57.73,-241.8 7.28,-1.1 -123.73,62.2 -194.64,198.2 -79.28,127.5 -98.45,327.8 -60.77,405.5 56.31,168.3 215.84,225 265.57,163.2 51.56,-60.7 33.22,-166.2 7.03,-254.3" /><path
         id="path144"
         style="fill:#466eb6;fill-opacity:1;fill-rule:nonzero;stroke:none"
         d="m 6399.53,5698.8 c -29.28,-10 -122.65,-23.5 -190.93,-81.9 -70.96,-50.9 -116.82,-146.7 -112.84,-145.1 2.77,-4.7 -21.3,100.2 24.42,204 36.95,104.6 143.67,208.2 205.94,222.4 123.1,45.3 229.55,-20.6 216.91,-77.8 -11.22,-57.8 -80.55,-96 -143.5,-121.6" /><path
         id="path146"
         style="fill:#466eb6;fill-opacity:1;fill-rule:nonzero;stroke:none"
         d="m 6544.07,5345.1 c -29.28,-10 -122.65,-23.5 -190.93,-81.9 -70.95,-50.8 -116.82,-146.6 -112.84,-145.1 2.77,-4.6 -21.3,100.2 24.41,203.9 36.96,104.7 143.69,208.4 205.94,222.5 123.11,45.3 229.55,-20.5 216.92,-77.8 -11.24,-57.8 -80.56,-95.9 -143.5,-121.6" /><path
         id="path148"
         style="fill:#466eb6;fill-opacity:1;fill-rule:nonzero;stroke:none"
         d="m 3317.61,6660.6 c 24.3,30.1 79.96,134.1 177.79,189.5 90.01,61.7 222.19,74.7 218.63,70.7 4.3,-5.2 -108.63,67.8 -250.1,58.3 -138.81,1.3 -306.13,-80 -349.35,-147.1 -105.72,-125.4 -73.74,-278.6 -1.09,-288.2 72.76,-11.5 147.18,53.8 204.12,116.8" /><path
         id="path150"
         style="fill:#466eb6;fill-opacity:1;fill-rule:nonzero;stroke:none"
         d="m 4017.14,6014.8 c 24.29,30.1 79.94,134.1 177.78,189.4 90.01,61.7 222.18,74.8 218.64,70.8 4.3,-5.3 -108.63,67.7 -250.11,58.3 -138.81,1.2 -306.14,-80.1 -349.35,-147.2 -105.72,-125.4 -73.73,-278.6 -1.09,-288.1 72.75,-11.5 147.18,53.7 204.13,116.8" /><path
         id="path152"
         style="fill:#466eb6;fill-opacity:1;fill-rule:nonzero;stroke:none"
         d="m 5258.41,6593.8 c 38.67,-2 155.53,14 257.75,-32.7 102.79,-36.7 190.94,-136 185.61,-135.5 -1.73,-6.6 -8.91,127.7 -99.61,236.7 -80.49,113.1 -244.48,200.9 -324.21,196.5 -163.55,12 -268.81,-103.9 -233.92,-168.3 33.43,-65.6 129.92,-87.6 214.38,-96.7" /><path
         id="path154"
         style="fill:#466eb6;fill-opacity:1;fill-rule:nonzero;stroke:none"
         d="m 5463.33,6098.1 c 38.66,-2 155.53,14 257.74,-32.7 102.8,-36.7 190.96,-136 185.62,-135.5 -1.72,-6.6 -8.92,127.7 -99.61,236.7 -80.49,113.1 -244.49,200.9 -324.21,196.4 -163.56,12 -268.81,-103.8 -233.92,-168.2 33.43,-65.7 129.91,-87.6 214.38,-96.7" /><path
         id="path156"
         style="fill:#466eb6;fill-opacity:1;fill-rule:nonzero;stroke:none"
         d="m 4907.75,5019.4 c 24.29,30.2 79.95,134.2 177.78,189.5 90.01,61.7 222.2,74.7 218.63,70.8 4.31,-5.3 -108.63,67.7 -250.09,58.2 -138.81,1.3 -306.15,-80 -349.37,-147.1 -105.71,-125.4 -73.72,-278.6 -1.08,-288.1 72.74,-11.5 147.19,53.7 204.13,116.7" /><path
         id="path158"
         style="fill:#466eb6;fill-opacity:1;fill-rule:nonzero;stroke:none"
         d="m 2905.63,7197 c 19.23,15.7 67.92,73.6 136.66,95.5 64.67,26.8 149.39,17.5 146.64,15.5 2,-3.9 -59.27,56.9 -149.35,69.6 -87,19.2 -202.8,-9.8 -238.82,-46.2 -82.94,-64.8 -83.09,-165.2 -38.74,-180.8 44.16,-16.8 99.52,14.3 143.61,46.4" /><path
         id="path160"
         style="fill:#466eb6;fill-opacity:1;fill-rule:nonzero;stroke:none"
         d="m 3091.41,7603.8 c -1,-24.8 -18.05,-98.5 5.85,-166.6 17.4,-67.8 75.76,-129.9 75.72,-126.5 4.3,0.7 -81.09,13.2 -145.42,77.5 -67.58,58 -114.08,167.9 -106.62,218.6 1.9,105.2 82.07,165.7 121.19,139.7 39.99,-25.2 48.39,-88.2 49.28,-142.7" /><path
         id="path162"
         style="fill:#466eb6;fill-opacity:1;fill-rule:nonzero;stroke:none"
         d="m 1688.77,3995.6 c 969.96,-296.7 1809.49,-909.1 2616.65,-1504.1 544.29,-401.3 498.54,-477.4 612.41,-543.4 18.43,-10.7 42.27,7 36.28,27.9 -29.3,101.8 -140.38,188.1 -215.86,257.8 -87.83,81.2 -181.5,155.9 -277.41,227.3 -205.21,152.6 -418.4,295.5 -629.82,439.3 -430.09,292.7 -870.1,574.7 -1340.71,798.4 -258,122.7 -524.52,226.4 -799.35,304.7 -5.11,1.4 -7.25,-6.4 -2.19,-7.9 v 0" /><path
         id="path164"
         style="fill:#466eb6;fill-opacity:1;fill-rule:nonzero;stroke:none"
         d="m 2639.85,4133.1 c -14.16,-39.4 -78.89,-149.3 -74.91,-270.8 -6.34,-117.9 56.03,-247.4 57.72,-241.8 7.28,-1 -123.74,62.2 -194.64,198.2 -79.28,127.5 -98.44,327.8 -60.77,405.5 56.3,168.3 215.84,225 265.57,163.2 51.55,-60.7 33.22,-166.2 7.03,-254.3" /><path
         id="path166"
         style="fill:#466eb6;fill-opacity:1;fill-rule:nonzero;stroke:none"
         d="m 3453.18,3655 c -14.16,-39.4 -78.89,-149.4 -74.91,-270.9 -6.34,-117.9 56.03,-247.3 57.72,-241.8 7.28,-1 -123.74,62.2 -194.65,198.2 -79.27,127.6 -98.43,327.9 -60.75,405.6 56.29,168.2 215.83,224.9 265.56,163.2 51.55,-60.7 33.21,-166.2 7.03,-254.3" /><path
         id="path168"
         style="fill:#466eb6;fill-opacity:1;fill-rule:nonzero;stroke:none"
         d="m 4264.84,3091.4 c -14.16,-39.4 -78.9,-149.4 -74.91,-270.9 -6.35,-117.9 56.02,-247.3 57.71,-241.8 7.27,-1 -123.74,62.2 -194.64,198.2 -79.27,127.6 -98.43,327.9 -60.77,405.6 56.31,168.2 215.85,224.9 265.57,163.2 51.56,-60.7 33.23,-166.2 7.04,-254.3" /><path
         id="path170"
         style="fill:#466eb6;fill-opacity:1;fill-rule:nonzero;stroke:none"
         d="m 2224.55,3367.3 c 24.28,30.1 79.94,134.1 177.78,189.4 89.99,61.7 222.18,74.8 218.62,70.8 4.3,-5.3 -108.63,67.7 -250.1,58.3 -138.8,1.2 -306.13,-80 -349.36,-147.2 -105.71,-125.4 -73.73,-278.5 -1.08,-288.1 72.76,-11.5 147.19,53.7 204.14,116.8" /><path
         id="path172"
         style="fill:#466eb6;fill-opacity:1;fill-rule:nonzero;stroke:none"
         d="m 3071.25,2873.7 c 24.28,30.1 79.94,134.1 177.79,189.4 89.99,61.7 222.17,74.8 218.61,70.8 4.31,-5.3 -108.63,67.7 -250.09,58.3 -138.81,1.2 -306.14,-80.1 -349.37,-147.2 -105.71,-125.4 -73.72,-278.6 -1.09,-288.1 72.77,-11.5 147.2,53.7 204.15,116.8" /><path
         id="path174"
         style="fill:#466eb6;fill-opacity:1;fill-rule:nonzero;stroke:none"
         d="m 1596.05,3829.3 c 19.24,15.7 67.92,73.6 136.66,95.4 64.67,26.9 149.39,17.6 146.63,15.6 2.02,-3.9 -59.26,56.9 -149.34,69.6 -86.99,19.1 -202.81,-9.8 -238.82,-46.2 -82.94,-64.8 -83.1,-165.2 -38.74,-180.8 44.17,-16.8 99.52,14.3 143.61,46.4" /><path
         id="path176"
         style="fill:#466eb6;fill-opacity:1;fill-rule:nonzero;stroke:none"
         d="m 1781.83,4236.1 c -1,-24.8 -18.04,-98.6 5.85,-166.6 17.41,-67.8 75.75,-130 75.73,-126.5 4.29,0.7 -81.11,13.1 -145.44,77.4 -67.56,58.1 -114.08,168 -106.6,218.7 1.89,105.2 82.06,165.7 121.18,139.7 39.99,-25.2 48.39,-88.2 49.28,-142.7" /><g
         transform="scale(1.74852)"
         id="g178"><path
           id="path180"
           style="fill:#184655;fill-opacity:1;fill-rule:nonzero;stroke:none"
           d="M 16240.8,1165.9 H 1257.69 c -32.72,0 -59.23,-31.17 -59.23,-69.66 0,-38.43 26.51,-69.6 59.23,-69.6 H 16240.8 c 32.7,0 59.2,31.17 59.2,69.6 0,38.49 -26.5,69.66 -59.2,69.66" /></g><g
         transform="scale(1.3879)"
         id="g182"><path
           id="path184"
           style="fill:#f7a491;fill-opacity:1;fill-rule:nonzero;stroke:none"
           d="m 15966.4,1785.73 c 10,71.61 -12.5,194.9 -68.5,387.63 111,-0.21 204.5,48.93 317.9,47.19 31,-181.28 79.1,-478.99 79.1,-478.99 l 5.1,-235.32 -790.4,-5.91 c 0,0 6.6,-3.39 239.6,143.81 17.3,10.88 207.5,72.34 217.2,141.59" /></g><g
         transform="scale(1.3919)"
         id="g186"><path
           id="path188"
           style="fill:#fae0b2;fill-opacity:1;fill-rule:nonzero;stroke:none"
           d="m 16256.9,1441.63 h -813.6 c -30.1,2.65 -37.4,27.22 -27,42.38 21.5,31.11 180.1,105.97 286.8,155.55 187.2,-19.69 516.1,57.33 545.6,100.72 51.3,-143.61 24.9,-294.99 8.2,-298.65" /></g><g
         transform="scale(1.47174)"
         id="g190"><path
           id="path192"
           style="fill:#f7a491;fill-opacity:1;fill-rule:nonzero;stroke:none"
           d="m 15985.4,1684 c 9.4,67.54 25.4,152.13 1.9,377.44 104.8,-0.27 204.5,19.37 311.5,17.81 0,-175.92 -3.7,-436.9 -3.7,-436.9 l 4.9,-221.92 -745.4,-5.57 c 0,0 6.2,-3.19 225.9,135.62 16.3,10.26 195.7,68.22 204.9,133.52" /></g><g
         transform="scale(1.47574)"
         id="g194"><path
           id="path196"
           style="fill:#fae0b2;fill-opacity:1;fill-rule:nonzero;stroke:none"
           d="m 16259.3,1359.72 h -767.4 c -28.4,2.51 -35.3,25.68 -25.4,39.98 20.2,29.34 169.9,99.95 270.5,146.71 176.5,-18.57 486.7,54.07 514.5,95 48.5,-135.45 23.6,-278.23 7.8,-281.69" /></g><g
         transform="scale(1.44033)"
         id="g198"><path
           id="path200"
           style="fill:#184655;fill-opacity:1;fill-rule:nonzero;stroke:none"
           d="m 15595.4,6667.38 232.3,-129.55 472.3,-722.06 -844.6,-1987.82 c 0,0 95.1,-298.89 126.1,-448.23 32.5,-156.28 112,-1497.44 112,-1497.44 l -360.3,-6.11 c 0,0 -342.2,1427.81 -400.2,1891.24 -70.4,562.72 358.1,1902.98 358.1,1902.98 79.9,273.41 252.3,835.99 252.3,835.99 0,0 42.1,137.05 52,161" /></g><g
         transform="scale(1.4951)"
         id="g202"><path
           id="path204"
           style="fill:#466eb6;fill-opacity:1;fill-rule:nonzero;stroke:none"
           d="m 15803.1,6684.45 c 0,0 -23.1,-163.67 69.4,-350.28 56.4,-113.78 153.9,-203 223.7,-342.39 132,-263.79 203.8,-638.42 154.2,-879.27 0,0 -273.1,-1042.81 -262.2,-1423.92 4,-140.59 52.2,-393.82 83.1,-564.98 27.2,-151.3 17.7,-1274.03 17.7,-1274.03 l -368.8,-7.09 -296.9,1841.35 -125.4,1636.82 -273.8,1102.46 779,261.33" /></g><g
         transform="scale(1.55782)"
         id="g206"><path
           id="path208"
           style="fill:#13375b;fill-opacity:1;fill-rule:nonzero;stroke:none"
           d="m 14339.9,8750.03 c 34.3,162.23 69.8,325.05 230.9,441.91 130.5,94.56 270.7,121.57 419.3,67.68 421.1,-152.72 194.6,-486.89 717.1,-843.05 162.4,-110.67 224.1,-149.25 340.6,-296.74 163,-206.43 252.2,-483.41 170.2,-711.43 -169.5,-471.55 -694.9,-607.8 -969.7,-507.81 -511.6,186.09 -937.8,834.86 -966.1,1011.9 -30.3,189.47 35.5,733.11 57.7,837.54" /></g><g
         transform="scale(1.39353)"
         id="g210"><path
           id="path212"
           style="fill:#f7a491;fill-opacity:1;fill-rule:nonzero;stroke:none"
           d="m 16300,8405.84 -282.7,324.6 c 0,0 -324,-160.81 -700.1,-311.63 -94,180.9 -235.2,768.89 -242.9,796.99 -7.8,28.18 209.9,368.63 164.8,379.3 -45,10.66 -112.2,-181.98 -159.3,-160.19 -47.2,21.8 -151.4,479.71 -181.3,456.22 -56,-43.94 53,-284.31 23.8,-300.25 -29.2,-15.95 -89.8,265.12 -145.3,255.59 -55.5,-9.54 82.3,-257.03 65.1,-279.53 -17.3,-22.51 -162.3,210.34 -196.5,159.25 -18.5,-27.72 134.4,-203.07 100.7,-220.54 -33.8,-17.49 -173.3,94.79 -192.1,61.11 -18.6,-33.67 131.6,-75.92 170,-164.76 38.5,-88.85 113.6,-125.96 132.1,-291.64 18.4,-165.51 50.8,-1048.36 227.2,-1126.56 154,-68.31 1216.5,422.04 1216.5,422.04" /></g><g
         transform="scale(1.39573)"
         id="g214"><path
           id="path216"
           style="fill:#e8bd70;fill-opacity:1;fill-rule:nonzero;stroke:none"
           d="m 16229.1,8729.04 c 70.9,124.45 15.5,258.04 15.5,258.04 -215,-130.97 -540.5,-354.1 -540.5,-354.1 89.9,-328.65 173.3,-496.14 173.3,-496.14 199.5,118.14 220.5,122.24 220.5,122.24 89.3,426.4 131.2,469.96 131.2,469.96" /></g><g
         transform="scale(1.5159)"
         id="g218"><path
           id="path220"
           style="fill:#f7cc7f;fill-opacity:1;fill-rule:nonzero;stroke:none"
           d="m 14956.9,8274.67 c 149.7,39.34 180,19.67 457.7,15.54 425.4,-6.06 640.1,91.94 885.4,-998.24 0,0 -196,-77.46 -390.9,-64.01 -25.3,125.7 -23.8,349.09 -69,210.12 -68.4,-209.98 -118.4,-421.96 -152,-640.17 -21.3,-129.37 -67.8,-294.96 -43.4,-426.76 0,0 -289.7,-59.63 -510.9,-69.33 -0.6,-0.07 -1.3,-0.07 -2,0 -106.9,2.77 -216.4,12.2 -313.9,33.18 0,0 -43.8,917.05 -66.6,955.61 -235.5,399.1 205.6,984.06 205.6,984.06" /></g><g
         transform="scale(1.43723)"
         id="g222"><path
           id="path224"
           style="fill:#f7a491;fill-opacity:1;fill-rule:nonzero;stroke:none"
           d="m 16188,9174.62 c 0,0 35.7,-288.55 56.8,-388.72 22,-104.82 55.2,-434.91 -162.2,-488.51 -217.3,-53.59 -150.2,359.17 -153.8,465.75 -3.5,106.58 -65.1,478.21 -65.1,478.21 l 324.3,-66.73" /></g><g
         transform="scale(1.4284)"
         id="g226"><path
           id="path228"
           style="fill:#f47458;fill-opacity:1;fill-rule:nonzero;stroke:none"
           d="m 16300,9138.72 c -2.2,-1.33 -4.3,-2.76 -6.6,-4.07 -120.9,-69.3 -226.1,-58.37 -305,-4.43 -14.2,92.81 -26.6,168.29 -26.6,168.29 l 326.3,-67.15 c 0,0 4.8,-38.69 11.9,-92.64" /></g><g
         transform="scale(1.44901)"
         id="g230"><path
           id="path232"
           style="fill:#f7a491;fill-opacity:1;fill-rule:nonzero;stroke:none"
           d="m 15991.7,9845.36 c 0,0 126.2,-35.51 199.1,-160.97 72.8,-125.46 109.2,-485.77 -159,-639.51 -268.1,-153.74 -458.4,92.58 -450.4,323.03 8.2,230.44 72.4,535.28 410.3,477.45" /></g><g
         transform="scale(1.39126)"
         id="g234"><path
           id="path236"
           style="fill:#f7a491;fill-opacity:1;fill-rule:nonzero;stroke:none"
           d="m 16166.5,9859.7 c -3.1,-62.38 23.5,-114.43 59.5,-116.24 36,-1.83 67.8,47.26 70.9,109.65 3.1,62.38 -23.6,114.44 -59.6,116.26 -36.1,1.82 -67.8,-47.28 -70.8,-109.67" /></g><g
         transform="scale(1.45683)"
         id="g238"><path
           id="path240"
           style="fill:#13375b;fill-opacity:1;fill-rule:nonzero;stroke:none"
           d="m 15868,9801.93 c 0,0 143.8,-374.82 284.5,-414.77 140.7,-39.95 129.4,-224.32 129.4,-224.32 0,0 18.1,426.17 -110.5,530.64 -128.5,104.47 -303.4,108.45 -303.4,108.45" /></g><g
         transform="scale(1.4529)"
         id="g242"><path
           id="path244"
           style="fill:#f7a491;fill-opacity:1;fill-rule:nonzero;stroke:none"
           d="m 16135.7,9339.04 c -21.7,-58.74 -7.5,-118.4 31.9,-133.25 39.3,-14.83 88.9,20.76 110.7,79.52 21.7,58.74 7.5,118.39 -31.9,133.24 -39.4,14.83 -88.9,-20.77 -110.7,-79.51" /></g><g
         transform="scale(1.48455)"
         id="g246"><path
           id="path248"
           style="fill:#f47458;fill-opacity:1;fill-rule:nonzero;stroke:none"
           d="m 15788.7,6792.97 c 0,0 26.6,26.45 42.8,-10.43 107,-242.96 468.5,-1230.34 50.9,-1515.95 -481.1,-328.85 -454.4,195.62 -136,347.92 318.4,152.24 42.3,1178.46 42.3,1178.46" /></g><g
         transform="scale(1.49517)"
         id="g250"><path
           id="path252"
           style="fill:#f47458;fill-opacity:1;fill-rule:nonzero;stroke:none"
           d="m 15387.9,8148.51 c 0,0 -462.2,-356.63 -451.3,-808.93 7.1,-294.09 367.5,-797.36 690,-730.61 122.9,25.41 307.8,151.18 315,324 7.6,181.72 -165.8,410.2 -165.8,410.2 l 355.8,881.86 c 17.2,23.45 168.4,223.26 164,225.93 -33.1,20.34 -169.6,53.07 -286.9,-171.32 -19,-36.19 -128.7,-195.24 -202.6,-214.22 -185.8,-47.71 -418.2,83.09 -418.2,83.09" /></g><g
         transform="scale(1.4578)"
         id="g254"><path
           id="path256"
           style="fill:#b75742;fill-opacity:1;fill-rule:nonzero;stroke:none"
           d="m 15782.4,8357.39 c 0,0 238.3,-134.16 428.8,-85.23 26.9,6.9 58.5,31.89 88.8,62.91 -78.6,-113.28 -180.9,-202.98 -180.9,-202.98 -155.3,15.83 -314.9,86.91 -423.2,148.92 51.1,49.1 86.5,76.38 86.5,76.38" /></g><g
         transform="scale(1.46807)"
         id="g258"><path
           id="path260"
           style="fill:#f47458;fill-opacity:1;fill-rule:nonzero;stroke:none"
           d="m 15503.7,8768.92 c 0,0 -11.8,-189.87 61.3,-239.09 0,0 -31.6,-160.53 -14.2,-188.1 17.4,-27.56 123.3,-175.44 472.3,-218.67 0,0 276.9,237.41 246.1,420.71 l -109.7,158.09 c 0,0 -35.7,186.85 -111.9,242.06 l -95.7,-196.4 c 0,0 -212.3,-37.19 -250.1,-88.42 l -198.1,109.82" /></g><g
         transform="scale(1.50627)"
         id="g262"><path
           id="path264"
           style="fill:#f47458;fill-opacity:1;fill-rule:nonzero;stroke:none"
           d="m 15561.8,7301.79 c 0,0 291.2,19.79 349.6,-193.17 58.4,-212.98 -7.5,-243.02 -7.5,-243.02 0,0 339.4,151.56 377.7,49.54 18.4,-48.97 -704.4,-333.85 -704.4,-333.85 l -15.4,720.5" /></g><g
         transform="scale(1.51277)"
         id="g266"><path
           id="path268"
           style="fill:#f7a491;fill-opacity:1;fill-rule:nonzero;stroke:none"
           d="m 14842.3,6530 c -5,0.85 -25.7,10.64 -43.5,15.86 -24.5,7.4 -47,10.58 -47,10.58 0,0 -6.9,11.3 -22.5,25.71 -6.5,5.95 -18.4,11.24 -25.7,17.85 -7.4,6.94 -12.4,16.71 -19.5,23.08 -18.5,16.28 -37.6,24.83 -47.8,15.6 -8.5,-7.6 87.9,-119.53 87.9,-119.53 110.9,-36.35 208.9,-130.29 520.3,-45.08 167.5,16.99 994.5,140.19 1033.6,212.44 21.9,40.52 19.6,409.48 11.5,691.67 -78.9,-8.73 -246.7,-26.91 -339.8,-34.94 24,-183.8 44.9,-423.97 27.2,-446.87 -4.5,-5.98 -17.4,-15.3 -601.4,-176.23 -14.7,-3.91 -29.7,-8.2 -45.1,-12.42 -41,-11.29 -85.1,-23.36 -131.7,-36.01 l -132.9,58.6 c 0,0 -222.8,54.98 -237.3,32.27 -6.5,-10.42 9.8,-21.88 30.9,-32.29 l 0.7,-0.21 c 3.1,-1.48 6.3,-2.96 9.4,-4.45 0.2,-0.08 0.4,-0.14 0.4,-0.14 23,-10.52 48.2,-19.08 53.6,-23.22 6.2,-4.63 18.4,-14.55 27.7,-26.67 -153.7,-11.86 -136.9,4.58 -181.1,21.89 -11,4.51 -24,5.11 -34.4,9.4 -17.8,7.4 -28.9,22.97 -42.8,28.38 -20.3,7.75 -40.2,3.55 -45.1,0.82 -6.4,-3.26 0.4,-13.09 15.2,-26.54 90.3,-79.2 182.8,-89.7 208.5,-105.39 17.3,-10.57 -19.1,-6.61 -70.6,16.21 -12.9,5.58 -31.9,6.39 -48.2,16.18 -10.9,6.39 -19.1,17.45 -29.8,23.99 -9.8,6.04 -20.7,9.3 -29.1,13.92 -11.1,5.95 -24.6,20.13 -33.5,24.22 -33.6,15.12 -52.5,14.49 -57.5,12.48 -10.4,-4.6 128.4,-116.19 128.4,-116.19 0,0 104,-50.76 128.4,-58.56 0,0 12.5,-11.24 -17.4,-6.41" /></g><g
         transform="scale(1.51201)"
         id="g270"><path
           id="path272"
           style="fill:#f7cc7f;fill-opacity:1;fill-rule:nonzero;stroke:none"
           d="m 16300,7296.16 c -64.7,-20.75 -196,-55.79 -329.9,-50.72 -3.8,34.59 -8,68.93 -12.3,101.5 93.2,8.03 261,26.22 340,34.95 0.8,-27.86 1.5,-56.58 2.2,-85.73" /></g><path
         id="path274"
         style="fill:#f7a491;fill-opacity:1;fill-rule:nonzero;stroke:none"
         d="m 8891.27,3096.3 c 0,0 43.96,-480.1 15.04,-636.6 -3.86,-20.9 -12.38,-47.5 -22.31,-76.7 -29.78,-87.8 51.8,-355.8 51.8,-355.8 l 1093.9,-4 c 59.6,-0.3 19.7,37.5 -28.7,72.2 -79.38,56.7 -143.29,94 -395.95,212.2 -16.47,7.7 -76.58,44.8 -98.26,57.6 -54.93,32.6 -110.35,84.2 -158.14,136 -79.61,86.3 -91.72,509.4 -91.72,509.4 l -365.66,85.7" /><path
         id="path276"
         style="fill:#f7cc7f;fill-opacity:1;fill-rule:nonzero;stroke:none"
         d="m 9506.66,2365.3 c -288.33,-77.6 -502.77,-29.9 -622.97,16.7 -29.77,-87.6 -85.78,-383.9 -52.37,-383.9 274.32,0 506.49,-51.9 1292.48,-39.5 28.1,0.4 24.7,97.1 6.3,118.4 -50.7,59 -601.73,275.4 -623.44,288.3" /><path
         id="path278"
         style="fill:#3c8f7c;fill-opacity:1;fill-rule:nonzero;stroke:none"
         d="m 7519.31,8794.8 c 0,0 15.55,-685.2 211.94,-1124 191.25,-427.4 1106.64,-1481.5 1349.94,-2096.7 -75.22,-347 -281.95,-834.8 -266.99,-1219.4 16.96,-435.9 -8.41,-1589.1 -8.41,-1589.1 L 9297.03,2750 9941.46,5726.1 8970.33,8937.3 8529.67,9717 7519.31,8794.8" /><path
         id="path280"
         style="fill:#f7a491;fill-opacity:1;fill-rule:nonzero;stroke:none"
         d="m 5420.62,3778.8 c 0,0 -301.82,-414.2 -434.78,-518.9 -71.2,-56.1 -264.58,-131.4 -284.96,-224.1 -20.39,-92.7 875.68,-913 875.68,-913 47.42,-42 42.12,16.1 27.73,77.8 -23.55,101 -48.37,175.7 -167.23,447.4 -7.75,17.7 -29.71,89.5 -38,115 -21.02,64.6 -29.04,144.7 -30.85,219.6 -3.01,124.7 284.26,471.1 284.26,471.1 l -231.85,325.1" /><path
         id="path282"
         style="fill:#f7cc7f;fill-opacity:1;fill-rule:nonzero;stroke:none"
         d="m 5399,2763.2 c -284.75,140.3 -422.5,328.9 -485.76,450.5 -85.26,-49 -314.63,-153.7 -294.48,-183 158.51,-229.9 322.95,-515.9 959.31,-1057.7 22.78,-19.4 116.18,92.4 116.5,122.3 0.87,82.7 -287.26,642.3 -295.57,667.9" /><path
         id="path284"
         style="fill:#b75742;fill-opacity:1;fill-rule:nonzero;stroke:none"
         d="m 9034.22,13695.3 c -84.75,552.5 -584.63,949.8 -1107.41,681.7 -117.58,-60.3 -276.76,-182.6 -357.97,-286.9 -223.31,-286.6 -277.44,-641.8 -514.17,-917.4 -204.1,-237.7 -748.9,-192.9 -1003.31,-375.6 -254.41,-182.8 -432.73,-510.5 -432.73,-902.5 0,-438.4 98.99,-903.7 438.66,-1180.9 339.67,-277.1 822.41,-346.2 1244.77,-228.7 422.37,117.4 784.75,405.2 1045.56,757.6 260.83,352.3 445.26,738.6 575.22,1157.3 145.06,467.3 166.16,938.3 111.38,1295.4" /><g
         transform="scale(1.0144)"
         id="g286"><path
           id="path288"
           style="fill:#f79c8d;fill-opacity:1;fill-rule:nonzero;stroke:none"
           d="m 7020.24,12762.1 c 0,0 -632.67,1129.2 -786.61,1369.3 -153.91,240 -554.9,1193.9 -569.22,1231.4 -14.33,37.6 276.13,489 211.3,504.5 -64.85,15.4 -136.58,-238 -205.76,-207.7 -69.17,30.3 -271.25,640.4 -310.67,610.1 -73.75,-56.6 108.92,-378.5 69.61,-398.7 -39.32,-20.3 -158.43,354.1 -235.66,343 -77.2,-11 146.86,-343.1 125.27,-372.4 -21.6,-29.4 -254.22,283.6 -296.3,216.9 -22.86,-36.3 213.88,-273.2 168.41,-295.4 -45.46,-22.2 -256.05,130.7 -278.35,86.7 -22.3,-44.1 194.76,-104.5 259.65,-223.4 64.92,-119 175.46,-170.4 221.37,-390.5 45.9,-220.2 114.49,-1017 349.63,-1414.5 235.15,-397.6 752.24,-1277.4 752.24,-1277.4 l 525.09,218.1" /></g><path
         id="path290"
         style="fill:#f48c7f;fill-opacity:1;fill-rule:nonzero;stroke:none"
         d="m 10959.4,8432.3 c -70.7,61.1 -221.9,194.7 -208.1,208.5 17.9,18 83.9,5.2 104.8,-2.8 20.9,-8 46.1,-15.3 67,-23.2 20.9,-8 44.1,1 55.8,26.3 11.8,25.3 -64.7,75.1 -94.5,87.1 -93.1,37.3 -361.8,86.9 -390,93.3 -33.4,7.7 -416.2,474 -560.03,623.4 0,0 0.02,0 0.05,0 -228.18,251.5 -450.12,521.4 -474.16,548.2 l -624.99,1313.1 -570.39,-41.8 c 0,0 673.14,-1467 715.18,-1536.6 20,-33 594.01,-574.9 594.24,-574.7 299.45,-249 563.9,-467.7 613.5,-511.1 0,0 113.5,-169.9 179.4,-282.3 42.2,-72 100.7,-129.4 143.5,-169 118.4,106.9 268.8,139.4 408.5,214.6 14,8.4 27.3,17.5 40.2,27" /><path
         id="path292"
         style="fill:#f47458;fill-opacity:1;fill-rule:nonzero;stroke:none"
         d="m 8561.67,12322.4 c 0,0 440.96,-210.6 658.35,-1521.9 l -747.5,-208.4 -311.05,845.2 400.2,885.1" /><path
         id="path294"
         style="fill:#50bfa5;fill-opacity:1;fill-rule:nonzero;stroke:none"
         d="m 7553.96,9233.6 c 0,0 -379.82,-570.5 -470.25,-1042.7 C 6995.63,7731 7142.04,6342.7 6989,5699 6728.54,5457.7 6279.66,5176.4 6071.59,4852.6 5835.78,4485.6 5154.28,3554.9 5154.28,3554.9 l 393.7,-294.2 2233.22,2070.1 904.07,2761.8 310.23,807.6 -1441.54,333.4" /><path
         id="path296"
         style="fill:#f7cc7f;fill-opacity:1;fill-rule:nonzero;stroke:none"
         d="m 7861.42,12479.8 c 0,0 -502.88,31.9 -701.84,-184.5 -198.94,-216.4 441.33,-1928.3 477.51,-2203.7 36.17,-275.5 -296.81,-824.7 -296.81,-824.7 0,0 1384.02,-647.1 1721.65,-424.2 0,0 -54.12,2207.4 -90.28,2404.2 -36.19,196.7 -337.64,996.8 -409.98,1075.5 -72.36,78.7 -700.25,157.4 -700.25,157.4" /><path
         id="path298"
         style="fill:#f7a491;fill-opacity:1;fill-rule:nonzero;stroke:none"
         d="m 8028.83,13150.4 c 0,0 -2.6,-14.8 -7.28,-39.9 -22.41,-120.7 -108.76,-521 -167.09,-631 -70.49,-133 241.33,-557.1 541.43,-505.4 89.35,15.5 -75.5,389.7 -67.58,429.4 15.16,75.9 35.73,179.4 56.78,285.6 11.87,59.9 23.89,120.6 35.18,177.7 32.1,162.1 58.28,294.8 58.28,294.8 l -449.72,-11.2" /><path
         id="path300"
         style="fill:#f47458;fill-opacity:1;fill-rule:nonzero;stroke:none"
         d="m 8021.55,13110.5 c 4.68,25.1 7.28,39.9 7.28,39.9 l 449.72,11.2 c 0,0 -26.18,-132.7 -58.28,-294.8 -11.23,-56.8 -23.18,-117.2 -34.99,-176.7 -69.43,10.2 -141.97,43.9 -214.72,107.4 -79.31,69.3 -131.28,152.5 -162.65,241.4 5.54,28.4 10.17,52.8 13.64,71.6" /><path
         id="path302"
         style="fill:#f7a491;fill-opacity:1;fill-rule:nonzero;stroke:none"
         d="m 8331.51,14170.6 c 0,0 -211.96,24.4 -344.84,-147.1 -132.87,-171.5 -276.07,-701.9 54,-990.2 330.06,-288.4 656.18,38 704.54,384.1 48.35,346 67.15,765.7 -413.7,753.2" /><path
         id="path304"
         style="fill:#f7a491;fill-opacity:1;fill-rule:nonzero;stroke:none"
         d="m 8842.85,13422.5 c -39.4,-76.4 -105.52,-118.7 -147.7,-94.5 -42.19,24.2 -44.43,105.8 -5.04,182.2 39.4,76.5 105.53,118.8 147.71,94.6 42.18,-24.3 44.43,-105.9 5.03,-182.3" /><path
         id="path306"
         style="fill:#b75742;fill-opacity:1;fill-rule:nonzero;stroke:none"
         d="m 8355.22,14227.3 c 0,0 -283.18,-504.4 -485.77,-527.7 -202.58,-23.3 -229.19,-291.3 -229.19,-291.3 0,0 72.44,617.5 272.99,736.6 200.56,119.1 441.97,82.4 441.97,82.4" /><path
         id="path308"
         style="fill:#f7a491;fill-opacity:1;fill-rule:nonzero;stroke:none"
         d="m 7922.57,13572.9 c 16.48,-89.6 -16.66,-171.7 -74.01,-183.5 -57.35,-11.7 -117.19,51.3 -133.67,140.9 -16.48,89.6 16.65,171.7 74.01,183.5 57.35,11.7 117.2,-51.4 133.67,-140.9" /><path
         id="path310"
         style="fill:#fae0b2;fill-opacity:1;fill-rule:nonzero;stroke:none"
         d="m 6943.72,13317.1 c 0,0 709.91,-761.8 815.45,-1068.9 105.55,-307 -102.89,-746.2 -390.74,-765.4 -287.84,-19.2 -928.42,1352.2 -928.42,1352.2 l 503.71,482.1" /><path
         id="path312"
         style="fill:#355389;fill-opacity:1;fill-rule:nonzero;stroke:none"
         d="m 14847.9,6667.8 28.8,82.7 180.4,-133 z m -14.4,169 -50.3,-183.3 307.5,-97.1 10.3,76.4 -267.5,204" /><path
         id="path314"
         style="fill:#f47458;fill-opacity:1;fill-rule:nonzero;stroke:none"
         d="m 15863.5,7466.9 -99.8,449.6 -598.5,-371.5 342.4,-275.8 c 0,0 107.8,280.4 355.9,197.7" /><path
         id="path316"
         style="fill:#b75742;fill-opacity:1;fill-rule:nonzero;stroke:none"
         d="m 11966.4,5793.6 c 0,0 -691.1,-308.8 -1455.7,-691.1 C 9746.07,4720.2 9562.27,4757 9452,4867.3 c -110.29,110.3 -117.64,356.6 -117.64,356.6 0,0 -180.12,-261 -88.22,-595.6 91.89,-334.5 356.57,-338.1 356.57,-338.1 l 191.15,113.9 -124.99,-224.2 c 0,0 270.18,-141.5 522.03,110.3 251.8,251.7 305.1,411.7 305.1,411.7 0,0 -99.3,-389.7 -198.5,-488.9 0,0 279.3,-125 444.8,99.2 165.4,224.2 238.9,511 238.9,511 l -62.5,-525.7 c 0,0 257.3,99.3 397,507.3 l -73.5,-386 c 0,0 259.5,359.7 365,760.7 105.5,400.9 326.1,445 326.1,445 l 33.1,169.1" /><path
         id="path318"
         style="fill:#b75742;fill-opacity:1;fill-rule:nonzero;stroke:none"
         d="m 13284.2,4446.2 c 0,0 25.1,-844.8 -543.7,-1154.3 -138.3,-75.2 -361.3,-349.5 -317.3,-500.7 41.7,-143.5 381.9,-438.1 381.9,-438.1 0,0 236.6,-17.1 343.5,-283.1 16.9,-42.2 -59.9,-31.7 -59.9,-31.7 l -602.6,-0.6 -519.7,879 35.3,550.9 338.2,857.7 646.9,103 297.4,17.9" /><g
         transform="scale(1.05437)"
         id="g320"><path
           id="path322"
           style="fill:#b75742;fill-opacity:1;fill-rule:nonzero;stroke:none"
           d="m 15296,4720.17 c 0,0 732.5,-1100.84 892.5,-1339.75 111.5,-166.55 111.5,-375.59 111.5,-375.59 0,0 -31.2,-334.89 -97.4,-401.09 -10.4,-10.34 -27.4,-17.83 -48.7,-23.24 -167.8,-41.63 -317.5,116.76 -270,283.02 22,77.01 39.6,147.48 39.6,176.12 0,76.73 -34.8,83.65 -34.8,83.65 l -808.9,466.45 -265,774.77 481.2,355.66" /></g><path
         id="path324"
         style="fill:#f47458;fill-opacity:1;fill-rule:nonzero;stroke:none"
         d="M 15567.5,4720.2 15427.8,3616 15494,2360.3 c 0,0 272,-66.2 352.9,-205.9 80.8,-139.7 66.2,-161.7 66.2,-161.7 h -647 c 0,0 -529.4,1259 -529.4,1398.7 0,139.6 -139.7,918.8 -139.7,1021.8 0,102.9 88.3,564.4 397,601.1 308.8,36.8 573.5,-294.1 573.5,-294.1" /><g
         transform="scale(1.06102)"
         id="g326"><path
           id="path328"
           style="fill:#f47458;fill-opacity:1;fill-rule:nonzero;stroke:none"
           d="m 15517.2,7204.02 -157.1,212.53 c 0,0 -517.4,147.78 -739.1,-73.89 -70.8,-70.87 -150.4,-173.7 -181.9,-309.32 -16.4,-70.78 -19.3,-214.7 -18.1,-342.88 1.5,-143.73 -27.7,-238.73 -85,-368.23 -102,-155.61 -523.8,-481.8 -692,-522.8 l 118.3,15.45 c 0,0 -227.2,-120.45 -414.5,-152.49 -728.5,-114.42 -1826.8,-135.34 -2071.3,-205.18 -290.9,-83.13 -467.6,-942.4 -388,-1375.47 79.7,-433.08 -512.9,-259.47 -656,-539.29 -134.9,-264.18 384.3,-1479.71 384.3,-1479.71 0,0 134.3,-163.62 158.5,-187.93 h 586.7 c 0,0 -18.5,378.78 -311.8,475.86 -293.4,96.98 -251.8,722.89 -251.8,722.89 0,0 838.4,-115.46 1254.3,429.58 320,419.79 289.6,532.7 258.7,562.48 153.4,-85.2 1224.9,-665.21 1764.5,-562.48 582.1,110.94 766.8,462.01 766.8,462.01 l -39.2,-254.09 c 0,0 391.5,142.03 353.4,460.78 0,0 58.9,-41.56 58.9,-131.67 0,0 169.7,218.29 169.7,911.2 0,386.61 -13.9,1365.96 -13.9,1365.96 0,0 696.1,127.61 786.6,218.09 61.4,61.45 141.8,509.98 141.8,509.98 l -782.8,158.62" /></g><path
         id="path330"
         style="fill:#b75742;fill-opacity:1;fill-rule:nonzero;stroke:none"
         d="m 15165.2,7545 c 0,0 149.1,-323.1 303.4,-372.1 154.4,-49 295.1,743.6 295.1,743.6 0,0 -216.6,83.2 -401.7,-101.9 -73.1,-73.1 -196.8,-269.6 -196.8,-269.6" /><path
         id="path332"
         style="fill:#b75742;fill-opacity:1;fill-rule:nonzero;stroke:none"
         d="m 15638.6,4530 c -184.4,-213.7 -15.3,-17.7 -141.7,-164.7 -26.1,259.4 55.7,583 123.2,839.5 -114.9,-123.2 -268,-368.6 -340.3,-473.1 130.3,224.6 97.4,658.4 71.7,913.2 -0.7,-0.9 -150.3,-177.8 -211.7,-251 -12,115.5 -31.8,371.1 7.6,483 40.4,114.9 157.9,249.5 245.5,333.3 -98.3,-81.5 -220,-207.6 -267.6,-325 -65.4,-161.5 -18.2,-562.5 -16.9,-591.3 218.7,247.8 69.5,79.1 206.5,235.2 14.3,-214.9 35.5,-661.5 -64.3,-839.5 117.6,74.3 228.7,235.3 296.4,358.1 -176.5,-455.9 -62.2,-723.1 -61.9,-730.3 -0.9,-1.1 9.5,12.3 149.2,193.6 7.6,-28 23.5,-87.7 25.1,-116.8 0.2,10.7 -14,102.4 -20.8,135.8" /><g
         transform="scale(1.00355)"
         id="g334"><path
           id="path336"
           style="fill:#184655;fill-opacity:1;fill-rule:nonzero;stroke:none"
           d="m 15103.5,6726.65 -99.6,-209.06 c 0,0 95.1,-707.99 1257.9,-629.17 l 38.2,299.83 c 0,0 -1060.3,36.98 -1196.5,538.4" /></g><path
         id="path338"
         style="fill:#184655;fill-opacity:1;fill-rule:nonzero;stroke:none"
         d="m 11443.5,8381.9 -37.4,-77.8 3433.2,-1646.4 37.3,77.8 -3433.1,1646.4" /><path
         id="path340"
         style="fill:#fae0b2;fill-opacity:1;fill-rule:nonzero;stroke:none"
         d="m 11461.6,8332.3 -93.6,96.2 -534.8,195 -604.7,-291.2 704,-712.3 50.9,173 -442.1,438.6 351.2,230.1 52.2,-30.4 182.6,-106.2 334.3,7.2" /><path
         id="path342"
         style="fill:#f7cc7f;fill-opacity:1;fill-rule:nonzero;stroke:none"
         d="m 11811.7,7935.2 c 0,-274 -222.2,-496.1 -496.1,-496.1 -274,0 -496.1,222.1 -496.1,496.1 0,273.9 222.1,496 496.1,496 273.9,0 496.1,-222.1 496.1,-496" /><path
         id="path344"
         style="fill:#fae0b2;fill-opacity:1;fill-rule:nonzero;stroke:none"
         d="m 11567.7,7941.4 c 0,-151.2 -122.5,-273.7 -273.7,-273.7 -151.2,0 -273.8,122.5 -273.8,273.7 0,151.2 122.6,273.8 273.8,273.8 151.2,0 273.7,-122.6 273.7,-273.8" /><path
         id="path346"
         style="fill:#f79c8d;fill-opacity:1;fill-rule:nonzero;stroke:none"
         d="m 10819.5,8763.7 c 0,0 153.4,-285.8 137.5,-339.6 -8.6,-29.1 -250.6,-199.7 -391.5,-199.7 -140.8,0 26.6,303.3 56.7,273.2 30.1,-30.1 10.8,-97.9 10.8,-97.9 0,0 25.6,208.9 59.3,242.6 33.7,33.7 46.5,-37.7 46.5,-37.7 0,0 -50.5,177.9 0,194.1 50.5,16.2 80.7,-35 80.7,-35" /></g></g></svg>