<?xml version="1.0" encoding="UTF-8"?>
<svg id="Camada_2" data-name="Camada 2" xmlns="http://www.w3.org/2000/svg" xmlns:xlink="http://www.w3.org/1999/xlink" viewBox="0 0 494.81 425.06">
  <defs>
    <style>
      .cls-1 {
        fill: #e68dbb;
      }

      .cls-1, .cls-2, .cls-3, .cls-4, .cls-5, .cls-6, .cls-7, .cls-8, .cls-9, .cls-10, .cls-11, .cls-12, .cls-13, .cls-14, .cls-15, .cls-16, .cls-17, .cls-18, .cls-19, .cls-20, .cls-21, .cls-22, .cls-23, .cls-24, .cls-25, .cls-26, .cls-27 {
        fill-rule: evenodd;
      }

      .cls-28, .cls-4, .cls-5 {
        fill: #fff;
      }

      .cls-2 {
        fill: url(#GradientFill_2);
      }

      .cls-3 {
        fill: url(#GradientFill_5);
      }

      .cls-4 {
        stroke: #231f20;
        stroke-width: .7px;
      }

      .cls-4, .cls-17 {
        stroke-miterlimit: 22.93;
      }

      .cls-6 {
        fill: #d2ab67;
      }

      .cls-7 {
        fill: #fbead3;
      }

      .cls-8 {
        fill: url(#GradientFill_2-4);
      }

      .cls-9 {
        fill: #ed1c24;
      }

      .cls-10, .cls-29 {
        fill: #231f20;
      }

      .cls-11 {
        fill: url(#GradientFill_4);
      }

      .cls-12 {
        fill: url(#GradientFill_6);
      }

      .cls-13 {
        fill: #0084b7;
      }

      .cls-14 {
        fill: url(#GradientFill_2-2);
      }

      .cls-15 {
        fill: url(#GradientFill_5-4);
      }

      .cls-16 {
        fill: #00aeef;
      }

      .cls-17 {
        stroke: #fec977;
        stroke-width: .22px;
      }

      .cls-17, .cls-24 {
        fill: #f5c477;
      }

      .cls-18 {
        fill: url(#GradientFill_5-2);
      }

      .cls-19 {
        fill: url(#GradientFill_2-3);
      }

      .cls-20 {
        fill: #be8130;
      }

      .cls-21 {
        fill: #d7a192;
      }

      .cls-22 {
        fill: url(#GradientFill_5-3);
      }

      .cls-23 {
        fill: #f8afb4;
      }

      .cls-25 {
        fill: url(#GradientFill_3);
      }

      .cls-26 {
        fill: #000002;
      }

      .cls-27 {
        fill: #1e5167;
      }
    </style>
    <linearGradient id="GradientFill_2" data-name="GradientFill 2" x1="318.82" y1="59.67" x2="339.7" y2="76.2" gradientUnits="userSpaceOnUse">
      <stop offset="0" stop-color="#a41e22"/>
      <stop offset="1" stop-color="#ed1c24"/>
    </linearGradient>
    <linearGradient id="GradientFill_2-2" data-name="GradientFill 2" x1="389.04" y1="198.86" x2="407.31" y2="220.13" xlink:href="#GradientFill_2"/>
    <linearGradient id="GradientFill_3" data-name="GradientFill 3" x1="345.89" y1="352.4" x2="287.07" y2="351.05" gradientUnits="userSpaceOnUse">
      <stop offset="0" stop-color="#ce7b28"/>
      <stop offset="1" stop-color="#fff"/>
    </linearGradient>
    <linearGradient id="GradientFill_4" data-name="GradientFill 4" x1="396.68" y1="451.14" x2="263.02" y2="202.92" gradientUnits="userSpaceOnUse">
      <stop offset="0" stop-color="#f5c477"/>
      <stop offset="1" stop-color="#fff"/>
    </linearGradient>
    <linearGradient id="GradientFill_5" data-name="GradientFill 5" x1="309.28" y1="196.69" x2="303.27" y2="176.97" gradientUnits="userSpaceOnUse">
      <stop offset="0" stop-color="#81806f"/>
      <stop offset=".34" stop-color="#d2ab67"/>
      <stop offset=".52" stop-color="#fff"/>
      <stop offset=".69" stop-color="#fff685"/>
      <stop offset="1" stop-color="#d2ab67"/>
    </linearGradient>
    <linearGradient id="GradientFill_5-2" data-name="GradientFill 5" x1="303.17" y1="175.45" x2="309.18" y2="195.17" xlink:href="#GradientFill_5"/>
    <linearGradient id="GradientFill_2-3" data-name="GradientFill 2" x1="146.5" y1="185.46" x2="171.43" y2="215.7" xlink:href="#GradientFill_2"/>
    <linearGradient id="GradientFill_6" data-name="GradientFill 6" x1="119.8" y1="360.01" x2="188.23" y2="233.96" gradientUnits="userSpaceOnUse">
      <stop offset="0" stop-color="#d7a192"/>
      <stop offset="1" stop-color="#fff"/>
    </linearGradient>
    <linearGradient id="GradientFill_2-4" data-name="GradientFill 2" x1="130.31" y1="310.85" x2="135.44" y2="324.2" xlink:href="#GradientFill_2"/>
    <linearGradient id="GradientFill_5-3" data-name="GradientFill 5" x1="139.93" y1="330.52" x2="135.55" y2="311.24" xlink:href="#GradientFill_5"/>
    <linearGradient id="GradientFill_5-4" data-name="GradientFill 5" x1="135.56" y1="309.83" x2="139.94" y2="329.11" xlink:href="#GradientFill_5"/>
  </defs>
  <g id="Camada_1-2" data-name="Camada 1">
    <g>
      <path class="cls-10" d="m337.28,158.26c3.33,1.22,6.75,2.67,9.86,4.49.06-.05.12-.1.18-.15-.75-.91-1.34-1.94-1.74-3.05-1.73-.61-3.41-1.34-4.94-2.23-1.18-.69-2.26-1.5-3.18-2.41-.07,1.1-.13,2.21-.18,3.35h0Zm21.19-55.51l.06-.05.19-.14c.71-.53,1.37-.96,2.14-1.35l2.16-1.36c.08-.06.16-.14.23-.2,2.25-2.28,5.47-3.33,8.62-3.33,14.14,0,16.93,21.98,23.66,31.36l.08.11.08.12c8.97,13.66,17.08,28.14,27.07,41.09,1.02,1.21,1.92,2.67,2.46,4.15.29.8.48,1.61.55,2.42l14.58,4.39c3.54.69,8.13.82,11.38-.74,3.74-1.79,8.6-2.75,12.75-2.75,2.99,0,11.17,1.63,15.06,1.15,10.63,2.9,13.92-4.53,14.72.74.63,2.13.73,4.68.22,6.81-3.49,14.61-29.85,27.95-41.13,30.8-5.91,1.5-11.83,2.62-16.56,6.76-5.42,4.74-10.43,9.84-16.53,13.75-5.34,3.42-10.87,5.53-16.92,6.5-.14.59-.3,1.17-.45,1.77-.2.79-.28,1.63-.43,2.43-.13.69-.42,1.43-.48,2.09-.1,1.26-.33,2.23-.62,3.44-1.17,5.02-2.58,9.83-4.27,14.58,1.52-.93,3.02-1.63,4.48-2l.61-.15,22.84-1.36h.19c2.31,0,4.57.03,6.77.85,3.39,1.27,5.51,3.99,6.32,7.47l.27,1.18-.15,1.2c-2.74,21.27-13.71,41.63-25.73,59.07-4.45,6.46-9.18,12.66-13.99,18.85.41-.19.8-.37,1.15-.55l2.55-1.57c3.11-2.04,6.58-3.4,10.15-4.4,6.83-1.9,9.4-.64,14.48,3.83l.05.04,3.47,3.18.27.31c1.78,2.09,3.52,3.78,4.84,6.27.8,1.5,2.42,3.11,3.44,4.56,2.42,3.47,2.78,7.52.43,11.16-.1.16-.21.31-.33.47l-.03.04-.29.37c-1.01,1.4-1.8,2.72-3.02,4-.85.97-1.32,1.73-2.42,2.51-.18,1.16-.34,2.31-.37,3.48-.11,5.1-1.87,10.26-7.35,11.7-2.94.77-4.25.04-6.83-.3l-.34-.03-.36-.07c-9.69-1.94-19.69-3.26-29.56-3.83-8.4-.49-17.6-.55-25.92.84l-.68.11-.69-.03c-3.94-.16-8.57-.09-12.18-1.82-.46-.22-.9-.47-1.31-.74-.08.04-.16.07-.24.11-8.22,3.54-16.61,4.28-25.43,4.11-6.53-.13-13.24-.79-19.79-.46-.43.52-.87,1.04-1.37,1.54-1.76,1.76-3.76,3.16-5.99,4.25-1.04.67-2.16,1.58-3.12,2.32-1.99,1.52-3.96,3.08-5.92,4.64-1.94,1.55-3.88,3.11-5.8,4.69-.95.78-2.04,1.63-2.94,2.48l-.34.41c-5.22,6.17-12.16,7.96-19.71,5.62-2.41-.75-4.66-1.83-6.89-3.01-.93-.49-2.4-1.4-3.34-1.71-.62-.17-1.36-.29-2.02-.45-1.55-.38-3.05-.87-4.53-1.47-9.39-3.59-11.59-13.34-11.15-22.34-2.23-6.31-1.35-13.19,2.06-18.98,3.46-7,10.01-8.21,17.18-8.59,6.1-.32,11.36-.46,17.04-3.1,2.88-1.33,2.82-10.88,2.69-13.39-.27-5.03-1.1-10.17-1.99-15.12-1.11-6.19-2.43-12.34-3.76-18.49-2.7-12.56-5.69-25.51-7.09-38.28l-.03-.25v-.25c-.05-1.13-.15-2.3-.12-3.43.04-1.61.38-4.65.16-6.15-.11-.76-1.39-2.58-1.81-3.18l-.03-.05-.03-.05c-16.54-24.97-11.49-46.27,4.7-68.69.48-8.7,1.15-18.11,4.28-26.19,3.09-7.98,8.3-13.19,15.21-14.96-4.78-1.18-8.88-1.85-12.57-6.1l-3.06-3.52,2.53-4.64c-2.46-.48-4.84-1.12-6.74-1.97-1.81.08-3.52.23-5.45.15-4.27-.19-8.47-1.11-12.27-3.13-12.49-6.65-14.54-21.29-13.55-34.12-9.95-10.66-6.34-29.37,2.66-39.97,5.68-6.7,13.68-10.72,22.59-10.03,11.41.89,20.87,9.06,27.77,17.58,2.15,2.65,6.7,3.95,11.06,4.55.3-5.26,1.74-10.59,3.91-15.09.45-.94.94-1.86,1.47-2.75-4.85-1.11-9.38-4.03-12.66-7.63-3.99-4.37-7.37-9.9-5.45-16.02,1.57-4.99,6.04-8.02,10.41-10.38,3.52-1.9,12.13-5.8,13.85-9.47,1.49-3.18,2.32-5.07,5.16-7.44,3.63-3.03,7.89-4.61,12.5-2.85,2.75,1.06,4.49,2.87,6.72,4.62.36.28.8.69,1.26,1.09,4.41-1.75,11.05-2.7,14.61-.31,4.82,3.25,6.78,10.53,6.73,16.1-.01,1.48,0,3.2.73,4.54,1.36,2.47,4.27,3.17,6.86,3.53,2.9.41,7.64.65,10.48.06,4.53-.93,8.01-2.57,12.87-2.69,1.8-.04,3.55-.24,5.35.03,2.96.44,5.21,1.94,7.08,4.25,3.83,4.74,4.14,10.93,4.52,16.71.22,3.29,3.15,10.04,6.65,10.97,12.37,3.29,12.7,18.27,5.2,26.37-3.94,4.26-9.56,6.67-15.3,7.04-6.81.44-13.29-1.93-18.63-6.08l-.31-.24-.28-.27c-.12-.11-.23-.23-.34-.34-1.84,2.69-4.03,5.18-6.3,7.45-.86.86-1.76,1.82-2.7,2.58-.78.62-1.67,1.18-2.49,1.76-.64.48-2.03,2.51-2.64,3.19-.49.56-.98,1.11-1.45,1.66h0Zm-60.86,211.69c-4.41,8.33-5.74,35.86-2.55,42.19,1.79,3.55,19.15,8.54,24.14,7.15.06-.02,1.31-.65,2.02-.71-9.2-7.32-29.88-23.85-23.84-38.92l3.17-5.87c-.22-.83-.82-1.47-1.33-2.06l-1.6-1.79h0Zm54.21-62.44c3.16,12.84,4.56,17.4,11.12,28.2,10.62-9.31,16.36-22.82,23.86-36.74-5.56-1.49-7.32,0-14.78-1.36-9.45,2.58-12.79,7.46-20.2,9.9h0Zm16.4-90.45l-3.33,1.02c4.65,0,10.85.26,16.42,6.66.2-.74-.11-.32.57-.57-.11-1.38-.98-3.11-1.36-4.32l-2.22-6.31c-.41-1.44-1.06-5.66-2.11-6.43l-1.37,2.89c-.69,1.61-.61,3.37-3.23,5.87-.94.89-1.58,1.19-3.36,1.19Z"/>
      <path class="cls-10" d="m370.9,103.01c-1.41,0-2.93.41-3.84,1.34-.31.31-.81.76-1.23,1.05l-2.62,1.65c-.61.3-.87.46-1.41.87l-1.82,1.59c-1.18,1.11-1.72,1.46-3.29,2.11l-5.36,2.32c-5.69,3.25-4.17,3.56-7.06,8.01l-3.01,4.39c-.63.96-.99,1.87-1.63,2.92-1.33,2.19-3.82,6.41-3.82,8.98,0,1.49.59,2.18,1.3,3.25l3.16,4.78c-2.04,4.34,5.88,6.93,10.62,8.18-1.57,6.72,7.55,6.48,12.8,7.4l-5.32,1.5c-.54.14-1.89.56-2.56.86-2.63,1.17-4.58,3.13-6.78,4.88l-.82.6c-.73.55-1.06.93-1.3,1.83-4.14-3.77-10.79-6.25-15.39-7.83-2.52-.68-1.96-2.29-1.96-4.4,1.01-27.5,7.5-43.68,24.39-62.65,1.2-1.35,2.21-3.09,3.76-4.2,2.77-1.97,1.6-.89,4.34-3.62,15.56-15.52,3.3-19.74,16.1-7.14,9.41,7.32,19.83,5.24,24.89-.21,4.04-4.37,5.26-13.4-2-15.32-6.49-1.72-11.21-10.65-11.62-17.01-.26-3.88-.4-9.66-3.04-12.93-1.95-2.41-3.3-1.88-7.05-1.79-3.99.09-7.89,1.77-11.67,2.55-3.5.72-9.26.5-12.77,0-4.9-.69-9.34-2.43-11.82-6.96-1.21-2.21-1.59-4.5-1.56-7.83.03-3.4-1.15-8.7-3.77-10.46-1.49-1-7.56.46-9.49,1.48-.49.26-.83.74-1.54.74-1.76,0-3.93-2.26-5.24-3.29-3.84-3.03-5.83-6.02-10.76-1.9-1.92,1.61-2.32,2.87-3.39,5.15-2.75,5.85-10.86,9.36-16.74,12.53-7.55,4.08-10.57,7.88-3.19,15.96,3.54,3.87,8.77,6.48,13.27,5.81,3.68-.54,2.88,0,7-1.54l9.53-5.54c.78-.56.31-.47,1.27-.72-.21.9-.57,2.02-.82,2.88-1.1,3.75-.04,3.97-2.88,4.51-13.88,1.86-20.42,20.66-17.83,31.79-7.65,0-18.45-1.27-23.5-7.51-33.15-40.95-60.11,12.53-40.3,25.79-.51.69-.58.54-.66,1.41-3.75,38.53,25.04,30.56,26.15,31.41,2.53,1.93,11.93,3.02,15.76,3.02l-5.12,9.39c2.72,3.12,7.1,3.41,10.91,4.45,3.02.82,4.56,2.45,6.83-.36,2.37-2.94,4.56-7.96,8.71-8.92l-3.53,12.11c-1.23,3.22-3.13,6.26-4.63,9.31-.48.97.82-.16-.19.58-21.66-5.03-22.65,21.32-23.49,36.83-14.09,18.93-21.88,38.2-5.7,62.62,3.83,5.57,3.02,6.03,2.83,13.31-.02.65.06,1.69.11,3.02,2.46,22.44,11.87,53.72,12.86,72.25.49,9.12-1.04,17.27-6.57,19.84-14.55,6.75-27.13.23-31.13,8.78-2.55,4.2-3.47,9.64-1.18,14.72-.54,6.54.16,14.67,6.81,17.17,3.22,1.32,5.02,1.41,6.17,1.78,4.61,1.51,14.74,10.57,22.75,1.15l.52-.62c.92-1.08,16.9-13.94,19.5-15.48,5.5-2.56,6.33-6.31,7.93-6.45,14.82-1.28,30.33,3.16,45.22-3.26,1.77-.76,3.2-1.17,3.2-3.62-1.32-9.34-8.1-17.25-8.82-25.88.81.59.26.33.99,1,3.35,3.22,8.1,8.84,16.36,13.4-.05,2.07-2.34,5.86-3.45,7.46l-.51.63c-.05.07-.2.25-.25.32-6.22,8.63,2.04,8.32,9.13,8.6,15.45-2.58,38.37-.89,57.91,3.03,2.7.24,6.7,2.78,6.86-4.86.06-3.04.85-5.3.85-7.97.39-.09,2.04-.64,2.31-.82.32-.22,1-1.19,1.46-1.67.97-1.02,1.69-2.27,2.54-3.43l.25-.32c.03-.05.09-.11.12-.16.84-1.31.56-2.44-.3-3.67-1.31-1.88-2.74-3.14-3.86-5.25-.97-1.83-2.68-3.49-4.03-5.07l-3.12-2.86c-3.53-3.11-3.92-3.61-8.24-2.4-2.98.83-5.84,1.94-8.35,3.6l-2.82,1.73c-4.62,2.48-14.19,5.25-19.78,5.25.14-6.38,42.81-46.24,48.35-89.31-.71-3.03-2.82-3.14-6.54-3.13l-22.02,1.31c-5.52,1.39-16.47,14.48-23.49,19.17,6.1-14.65,11.09-22.64,15.1-39.8.28-1.21.38-1.47.46-2.46.12-1.46.39-1.79.57-2.76.24-1.28.23-1.68.53-2.88.27-1.04.51-1.83.64-2.77.61-4.15.1-3.44,1.2-3.51,7.66-.49,13.41-2.77,18.41-5.97,5.65-3.62,10.34-8.43,15.73-13.15,11.67-10.22,25.57-5.23,42.96-19.39.15-.14.75-.7.9-.81.87-.61,1.59-.55,2.36-1.34,1.16-1.18.2-1.62,3.51-4.74.28-.26.03,0,.42-.43,1.24-1.38,2.16-2.98,3.17-4.51.77-1.16,1-.9,1.7-1.71.51-.59.25.12.56-1.15.26-1.09.14-2.55-.18-3.51-.36-1.07.27-1.1-1.38-1.18.74,8.88-18.13,4.27-21.9,4.27-3.2,0-7.1.77-9.86,2.09-4.56,2.18-10.54,2.3-15.9,1.2l-17.05-5.14c-3.53-1.17-6.06-.06-9.7.04,5.81-1.67,5.06-2.77,6.68-4.21,1.11-.56-.03-2.71-1.1-3.94-9.94-12.86-18.47-27.93-27.47-41.65-6.97-9.71-9.86-28.56-18.21-28.56h0Zm-22.16,146.72c2.26-1.51,1.35-.54,3.16-2.39,1.67-1.71,4.06-3.36,5.93-4.88,11.82-9.6,22.7-5.53,36.28-5.53-.03,1.48-.7,2.76-1.21,3.91l-3.41,6.83c-4.72,9.47-16.21,35.72-27.52,38.74-.07-.9,0-.34-.43-.98-.05-.07-.2-.25-.26-.31-8.01-10.03-13.22-27.82-12.55-35.39h0Zm19.49-88.18c1.78,0,2.42-.3,3.36-1.19,2.62-2.5,2.55-4.25,3.23-5.87l1.37-2.89c1.04.76,1.7,4.98,2.11,6.43l2.22,6.31c.39,1.22,1.25,2.95,1.36,4.32-.67.25-.37-.17-.57.57-5.57-6.41-11.77-6.66-16.42-6.66l3.33-1.02Z"/>
      <path class="cls-24" d="m293.88,27.5c5.98-3.41,13.45-8.32,16.41-15.19.73-1.52,1.32-1.94,2.65-2.76,2.11-1.31,3.72-.05,5.57,1.19,2.2,1.47,2.61,2.52,5.06,4.04l1.06,1.22c.71,1.39.94,1.3,2.24.65,2.76-1.37,3.82-2,7.35-2.61,3.51-.61,3.33.71,4.53,3.2,2.41,4.99-.99,11.83,3.52,16.39.6.6.83.76,1.38,1.47,8.82,8.03,24.97,3.85,33.04,2.07,9.37-1.94,9.53,1.79,10.11,8.76.97,11.76,5.62,17.88,10.52,20.7,6.09,3.51,10.68,8.9-.04,16.09-3.36,2.26-8.35,1.66-12.27.04-5.48-2.26-11.66-6.99-11.66-13.66,0-4.25-.28-9.42,1.13-13.37.68-1.92,1.92-3.67-.28-4.83-.24.5-.22.73-.54,1.16l-.72.72c-.66.78-1.09,4.39-1.22,5.3-.24,1.57-.76,8.31-1.78,6.72-10.57-16.27-37.16-20.12-50.51-18.14-.93.81,2.92-9.5,3.18-10.39.47-1.57,7-9.95,4.79-9.72-2.61,3.01-6.75,10.83-12.04,13.28-2.37,1.11-7.1,4.12-9.1,4.83-5.25,1.87-11.63.67-15.93-2.58-10-7.55-3.45-10.62,3.55-14.61Z"/>
      <path class="cls-2" d="m368.67,67.81c1.69,8.32-4.73,15.08-9.77,20.71-4.16,3.63-9.44,5.93-15,4.2-5.43-1.69-9.98-6.57-12.6-11.69-1.01-1.97-1.87-3.83-2.54-4.6-2.43-2.78-8.01-4.59-10.82-2.14-3.59,3.12-12.4,5.43-15.52,5.27-2.76,0-1.69.51-3.12-1.54-2.01-25.24,17.26-32.38,38.05-28.12,13.46,2.76,29.58,9.32,31.32,17.91Z"/>
      <path class="cls-27" d="m233.32,69.15c13.11-17.56,29.73-6.82,40.47,7.07-1.32,2.5-10.14,8.63-13.17,11.93-6.87,4.4-8.25,18.98-23.62,9.79-10.3-6.16-9.88-19.44-3.68-28.79Z"/>
      <path class="cls-24" d="m310.12,80.97c1.9-.39,10.31-4.75,11.18-4.75,4.42,0,5.51,1.63,7.4,5.12,2.99,5.53,5.42,8.66,8.83,10.86,4.49,2.9,8.45,4.02,13.64,3.64-.38,1.06.15.04-.61.81-21.65,23.13-23.09,45.82-23.59,66.19-.03,1.07-.45,1.88-1.33,2.46-3.91,3.08-10.86,11.11-13.63,11.53-.51-.39-2.72-1.69-3.33-2.1-1.4-.92-1.4-1.11-3.46-1.4l-2.46.08s-.13.02-.18.03c-.8.13-9.58-8.4-11.24-9.81-3.52-3-2.5-.12-.68-4.3,2.58-5.94,4.8-10.93,6.22-17.39l.78-3.21c.03-.09.13-.32.16-.41l.12-.44c.11-.37,0-.26.17-.68.35-.86.37-.69,1.18-1.09,3.74-1.84,5.13-3.62,7.5-5.3,2.04-1.44,3.78-3.33,5.03-5.49,1.59-2.75,1.72-2.82.94-6.17h-.57c-.43,1.84-1.33,3.14-2.34,4.49l-.77.94c-.77.91-1.4,2.02-2.42,2.7-1.27.84-1.59,1.4-2.74,2.38l-3.23,2.46s-.11.09-.16.12l-5.92,3.46c-.79.48-1.38.71-2.21,1.2l-5.13,5.11c-.8,1.16-1.06,3.87-2.95,3.87-1.26,0-7.15-1.5-8.88-1.93l-2.5-.92v-.85c1.02-.27,1.02-.47,1.48-1.36l.99-1.85c1.64-2.97,1.21-5.24,5.2-6.18,2.82-.67,5.48-1.73,8.06-3.04,1.49-.75,2.5-.99,4.1-1.59,10.13-3.83,24.54-17.51,31.36-24.38.95.5,2.43,1.56,3.54,1.86,1.32.36,3.14.41,4.71.41,1.7-.1,1.57-2.2-.4-2.05-3.13,0-4.65.19-6.47-3.19-1.16-2.16-1.84-4.94-2.42-6.83-1.25-4-4.16-2.41-2.69,2.15.25.77.38,1.61.54,2.31.22.93.32,1.35.76,2.09,3.44,5.9-28.05,23.62-33.22,25.94-7.84,3.52-16.18,5.72-23.67,3.37-14.86-4.65-22.02-24.06-17.13-26.58,8.4-1.57,11.01-8.66,14.84-13.73,3.5-4.63,7.54-4.02,11.83-9.95.77-.72,1.06-.88,1.15-1.97,8.23,4.22,18.53,5.56,34.62,3.33Z"/>
      <path class="cls-24" d="m382.73,173.5c.73-1.39.58-1.55-.28-2.84,1.26.34,1.47,1.79,1.9,2.94.56,1.53,1.3,1.99,2.94,1.61,0-1.2.73.02-.03-1.65l-1.47-2.82c-.11-.23-.23-.54-.36-.78-5.05-13.88-9.92-23.66-6.39-38.84-.98-.26-1.01-.64-1.14-1.85-1.2-.23-1.32-.33-1.85.58-.37.64-.59,3.82-.65,4.88l-.66,1.46c-.67.73-.75,1.14-1.86,1.56-2.28.88-1.98.02-3.51-.39-1.16.78-.86,1.19-1.86,1.84-1.06.68-1.2.62-1.55,2.14.78.52,1.61,1.45,2.56,1.71,1.06-.78.11-1.01,1.77-1.68,1.04-.42,1.32-.34,2.14.31,5.17,4.15,2.34,5.98.41,10.51-.65,1.51-.85,3.31-1.92,4.62-2.44,3.02-10.11,1.98-13.19,1.29-5.24-1.19-4.14-4.87-3.35-9.21.43-2.33,1.25-4.16,1.76-7.43.32-2.02.36-2.24-.7-3.83-2,1.34-1.1.93-1.16,3.12l-.37,1.95c-.46,3.15-2.46,6.85-2.46,9.16-4.45-1.04-9.53-1.75-8.67-5.87,1.94-5.33,4.96-7.37,7.18-10.41,1.09-1.49,2.72-5.01,3-6.91.18-1.21-.26-1.81-1.8-1.84-1.01,1.9-.66,5.06-4.01,8.5-3.75,4.84-3.71,4.41-6.04,8.61-1.43-1.05-2.91-4.37-2.84-6.42.02-.52.01-.28.2-.91.57-1.95.9-2.57,1.75-4.23l6.8-11.12c.52-.93.54-1.1,1.17-1.96.54-.74.66-.9,1.38-1.46,1.52-1.17,1.8-1.32,3.58-2.11,8.17-3.6,6.39-4.02,9.4-5.68.37-.21.51-.24.96-.46,2.52-1.24,5.59-5.17,9.42-3.12,1.41.76,1.96,1.89,2.81,3.17,2.7,4.04,3.8,10.12,6.2,14.56.37.68.62,1.12.98,1.86,8.76,14.38,18.08,28.43,27.04,42.64l3.22,4.18c1.34,2.01.64.88,1.05,2.67.13.59-.53-1.2-.36.32-9.13,8.16-52.43,8.37-65.28,45.37-6.82,26.79-1.63,45.56,11.93,67.71l1.42,2.28c1.14,1.85,2.06,4.07,3.27,5.83.32.46,10.23,16.2,12.39,11.79.02-.04-5.75-7.58-5.97-8.53,1.81,0,6.4-4.47,7.76-5.9l7.15-5.93c.74-.59,16.02-12.87,16.27-13.03l.74-.41c.05-.03.12-.08.17-.12.97-.67,1.08-.51,2.39-.74l16.23-1.02c3.24-.13,5.8-.62,4.73,3.22-12.02,46.85-39.25,68.8-46.06,83.34-3.01,6.44-1.71,6.34,2.62,6.03,8.76-.62,22.91-5.29,30.8-6.73,1.68-.31,3.43-.69,5.04-.64l2.26.47c.91.26.2-.14,1.05.38,1.43.86,2.65,2.7,3.63,4.05.89,1.21,1.15,2.28,2.04,3.37l1.85,2.16c.96,1.46-.43,3.03-1.37,4.15l-2.68,2.44c-.52-2.21-.62-2.83-1.75-4.79-4.6-7.98-.09-9.86-8.81-7.19l-7.56,2.11c-3.29,1.05-6.48,1.6-9.87,2.65-1.25.39-1.19.7-2.17.96v1.14c2.86.76-.26,1.78,5.41-.56,1.54-.64,4.34-1.05,6.11-1.57,1.3-.39,2.11-.27,3.44-.54.8-.16,2.02-.64,2.76-.94,1.61-.64,4.53-1.07,5.61-1.79,4.16,15.6,3.41,8.14,3.41,23.04-1.8.96-.98.54-2.59.37l-2.79-.39c-18.01-2.89-33.88-6.73-51.7-3.74-17.44,2.92-14.29.96-9.82-8.52,10.19-21.62,16.92-40.73,24.16-62.31.54-1.62,1.09-2.38,2.14-3.55.67-.75,1.48-3.1-1.22-3.49l-.96,2.17c-.3,1.01-.5,2.11-1.09,2.89-3.42,4.57-19.96,56.99-22.98,57.8-.02-.1-9.16-9.27-11.12-11.35-.04-.04-.1-.1-.14-.14-.04-.04-.1-.1-.14-.14-.04-.04-.1-.1-.14-.14-26.92-23.75-46.47-52.29-68.38-79.6-22.59-30.13-34.3-44.01-6.18-84.86,9.37-12.77,8.96-6.05,22.62-2.61,1.42.36,2.82,1.16,4.14,1.83,1.17.6.89.77,1.58,1.55.47.53,1.04.85,1.67,1.46,2.43,2.34,3.46,2.11,6.33,1.07,1.7-.62,2.23-1.3,3.69-2.28,1.41,2.11,2.56.96,3.91-.35,4.53-3.27,22.31-14.89,27.66-15.01-.02.85-.25,1.02-.57,1.7-1.21,2.54-3.78,10.43,1.14,9.39-2.11-9.05,6.72-18.4,13.92-22.47,12.53-7.08,22.39,6.26,26.76,6.26Z"/>
      <path class="cls-9" d="m383.02,190.57c.08,0,19.58-7.33,23.04-8.25,2.93,1.56,8.22.55,9.79.39,2.85-.28,8.91,3.01,12.94,3.9,4.46.98,7.92,2.82,14.25,2.82,5.01,0,5.2.46,9.5-1.02.82-.28.99-.43,1.6-.68,11.46-4.71,13.22.28,18.48.28,4.3,0,7.37-1.56,9.1-1.71-.38,1.41-3.41,4.63-4.72,5.81l-.44.41c-1.82,1.7-.73,1.37-2.48,1.78-1.37.32-2.59.58-4.19.93-28.06,6.16-20.43-1.31-39.42-2.09-2.67-.11-6.15.32-12.46,1.43-2.4.31-6.79-.02-9.63-.36l-8.24-1.43c-1.28-.16-3.38-.3-4.66-.46-1.6-.2-3.12-.5-4.51-.61-1.71-.13-3.4-.15-4.85-.27-5.37-.44-3.41-2.03-3.1-.88Z"/>
      <path class="cls-14" d="m348.32,240.91c0-1.85.41-3.2.41-4.69,0-4.12,1.52-12.76,2.92-16.73,3.46-9.78,14.3-19.65,23.42-24.06,1.69-.82,3.61-2.03,5.67-2.03l12.71.94c3.77.5,8.03.79,11.87,1.5,2.01.37,3.73.79,5.87.96,1.24.1,2.01,0,3.23.18,10.4,1.59,14.82-3.76,29.79,1.78,12.12,4.31,13.19.48,25.27-.52-4.3,6.43-22.58,10.42-29.54,11.15-20.39,8.09-19.02,26.39-54.03,24.32-12.33-.73-17.21-1.7-34.02,10.5-.62.42-1.02.5-1.63.93-.8.57-.47.61-1.67.89l-.28-5.12Z"/>
      <path class="cls-24" d="m363.39,288.98c.73-.84,1.46-1.42,2.34-2.21,15.14-10.06,25.66-38.79,26.38-39.32,0,2.37-.86,5.78-1.39,7.71-4.15,15.23-8.9,23.48-15.39,36.66-.29.52-.45.93-.8,1.48-1.39,2.19-.91,2.13-1.8,2.75-3.87,2.71-3.88,1.06-6.2-2.26-.03-.05-.08-.12-.12-.17l-2.33-3.64c-.32-.53-.4-.56-.7-1Z"/>
      <path class="cls-25" d="m299.14,386.4c2.73-4.68-6.27-11.76-6.65-21.65,11.57,6.12,20.38,10.54,34.11,7.48,1.47-.33,8.56-1.52,5.56-3.38-.75-.46-.41-.16-1.22-.17-.77,0,.25.02-.64,0-.1,0-.39-.02-.5-.02-2.03-.09-3.05-.79-4.5-2.06l-.29-.28c-1.6-1.46-3.4-2.27-5.11-3.99-9.56-9.31-26.06-24.18-22.94-39.53l.7-2.27c.19-1,.89-2,1.49-3.06.42-.74.89-.96,1.66-1.47,4.06,2.72,24.27,27.45,32.45,35.54,1.03,1.2,2.1,1.76,2.77,3.44l3.34,12.63c.29.96.12.53.47,1.24l4.33,9.32c.84,1.63,1.33,4.21-.61,5.32l-2.48.94c-9.95,4.66-31.18,1.97-41.94,1.97Z"/>
      <path class="cls-24" d="m419.14,355.82c-.84.4-2.83.37-3.74.52-7.58,1.29-3.92.72-9.58,2.72-1.47.52-1.22.91-.99-.02.16-.67,1.81-1.26,2.38-1.51.48-.22.86-.39,1.35-.64,2.6-1.35,8.63-3.75,10.59-1.07Z"/>
      <path class="cls-4" d="m332.77,73.32c.97-.47,17.9-3.33,20.84-3.57-.3.84-.18.43-.77.96-.08.07-.31.24-.39.31-2.72,1.67-9.66,7.09-11.77,9.07-.86.8-.76,1.15-1.65,1.47-1.42-3.19-3.55-6.22-6.26-8.24Z"/>
      <path class="cls-4" d="m307.62,60.24c.72.06,15.66,8.33,15.91,8.71-1.41.12-11.13,3.38-12.78,4.49-4.18-6.25-2.13-11.12-3.13-13.2Z"/>
      <path class="cls-11" d="m361.24,358.26c-2.44,6.3-4.39,10.71-5.25,10.94-.02-.1-9.16-9.27-11.12-11.35-.04-.04-.1-.1-.14-.14-.04-.04-.1-.1-.14-.14-.04-.04-.1-.1-.14-.14-26.92-23.75-46.47-52.29-68.38-79.6-17.53-23.39-28.51-36.99-19.39-61.02l1.66-1.42c25.02-19.61,48.22,1.2,55.05,26.99,3.2,12.08,11.37,30.9,13.5,36.58,10.99,29.31,26.07,52.89,34.37,79.29Z"/>
      <path class="cls-5" d="m237.07,68.55c2.98-3.26,11.43-9,17.29-2.54.79.87,1.89,4.19-1.06,3.78-17.39-2.43-13.47,9.24-17.55,6.03-1.56-1.23-1.78-3.89,1.32-7.27Z"/>
      <path class="cls-20" d="m384.97,38.15c1.34,1.55,1.52,4.25,1.81,7.79.97,11.76,5.62,17.88,10.52,20.7,6.09,3.51,10.68,8.9-.04,16.09-3.36,2.26-8.35,1.66-12.27.04-5.48-2.26-11.66-6.99-11.66-13.66,0-4.25-.28-9.42,1.13-13.37.65-1.83,1.81-3.51,0-4.67.92-12.87,6.62-16.2,10.5-12.92Z"/>
      <path class="cls-7" d="m340.09,29.6c.34,1.45.98,2.82,2.18,4.03.6.6.83.76,1.38,1.47,4.43,4.04,10.72,4.99,16.9,4.71l-.06.22c-.46,0,1.76,0-1.52,0s-6.35,8.22-8.36,10.47c-7-2.64-14.53-3.94-21.1-4.24,6.02-.99,10.47-9.04,10.47-15.92,0-.25-.03-.45-.1-.62l.21-.12Z"/>
      <path class="cls-20" d="m293.88,27.5c5.98-3.41,13.45-8.32,16.41-15.19.73-1.52,1.32-1.94,2.65-2.76,2.11-1.31,3.72-.05,5.57,1.19,2.2,1.47,2.61,2.52,5.06,4.04l1.06,1.22c.63,1.22.88,1.3,1.82.86,1.27,1.79,3.82,3.7.59,10.03l-5.29,7.34c-1.88,2.34-4.02,4.52-6.38,5.62-5.5,2.56-7.57,5.71-14.1,5.72-3.93.07-7.93-1.2-10.93-3.46-10-7.55-3.45-10.62,3.55-14.61Z"/>
      <path class="cls-7" d="m310.12,80.97c1.9-.39,10.31-4.75,11.18-4.75,4.42,0,5.51,1.63,7.4,5.12l.1.19-.31.47c-24.98,2.71-24.09,11.45-64.63,6.06,3.18-3.07,6.74-3.25,10.49-8.44.77-.72,1.06-.88,1.15-1.97,8.23,4.22,18.53,5.56,34.62,3.33Z"/>
      <g>
        <path class="cls-17" d="m235.11,99.55c1.15.46,8.87,3.25,8.91,3.3.85.9-4.2,10.32,10.84,24.73-17.94,0-20.93-13.87-19.75-28.03Z"/>
        <path class="cls-10" d="m263.6,101.6c.8,0,1.44-.65,1.44-1.44s-.65-1.44-1.44-1.44-1.44.65-1.44,1.44.65,1.44,1.44,1.44Z"/>
        <path class="cls-10" d="m257.16,110.04c.8,0,1.44-.65,1.44-1.44s-.65-1.44-1.44-1.44-1.44.65-1.44,1.44.65,1.44,1.44,1.44Z"/>
        <path class="cls-10" d="m263.16,118.71c.8,0,1.44-.65,1.44-1.44s-.65-1.44-1.44-1.44-1.44.65-1.44,1.44.65,1.44,1.44,1.44Z"/>
        <circle class="cls-29" cx="265.38" cy="110.38" r="1.44"/>
        <path class="cls-10" d="m255.16,121.6c.8,0,1.44-.65,1.44-1.44s-.65-1.44-1.44-1.44-1.44.65-1.44,1.44.65,1.44,1.44,1.44Z"/>
        <path class="cls-10" d="m268.49,125.59c.8,0,1.44-.65,1.44-1.44s-.65-1.44-1.44-1.44-1.44.65-1.44,1.44.65,1.44,1.44,1.44Z"/>
        <path class="cls-10" d="m273.15,110.49c.8,0,1.44-.65,1.44-1.44s-.65-1.44-1.44-1.44-1.44.65-1.44,1.44.65,1.44,1.44,1.44Z"/>
        <path class="cls-10" d="m240.05,109.82c.8,0,1.44-.65,1.44-1.44s-.65-1.44-1.44-1.44-1.44.65-1.44,1.44.65,1.44,1.44,1.44Z"/>
        <path class="cls-10" d="m245.38,118.93c.8,0,1.44-.65,1.44-1.44s-.65-1.44-1.44-1.44-1.44.65-1.44,1.44.65,1.44,1.44,1.44Z"/>
        <path class="cls-10" d="m239.61,117.6c.8,0,1.44-.65,1.44-1.44s-.65-1.44-1.44-1.44-1.44.65-1.44,1.44.65,1.44,1.44,1.44Z"/>
        <path class="cls-10" d="m246.05,124.71c.8,0,1.44-.65,1.44-1.44s-.65-1.44-1.44-1.44-1.44.65-1.44,1.44.65,1.44,1.44,1.44Z"/>
        <path class="cls-10" d="m276.08,118.3c.8,0,1.44-.65,1.44-1.44s-.65-1.44-1.44-1.44-1.44.65-1.44,1.44.65,1.44,1.44,1.44Z"/>
        <path class="cls-10" d="m250.63,108.81c.8,0,1.44-.65,1.44-1.44s-.65-1.44-1.44-1.44-1.44.65-1.44,1.44.65,1.44,1.44,1.44Z"/>
      </g>
      <path class="cls-9" d="m299.11,175.21c-1.43,2.13-1.59,1.35-2.79,4.32-1.05,2.59-1.58,6.14-.9,9.05-1.58,0-3.72-.79-4.75-1.43-20.14-11.43-23.6,6.8-23.7,5.55-.85-10.61,1.08-23.54,9.8-29.38,8.03-5.37,17.88,5.22,22.35,11.89Z"/>
      <path class="cls-24" d="m264.41,269.92h.57c.21.8.63,1.07,1.14,1.71,8.78,11.14,19.45,22.54,27.02,33.85-.2.87-.33.82-.55,1.73-.2.84-.25,1.25-.52,2.04-1.23,3.69-2.42,7.8-3.18,11.61-2.73,13.71-2.37,37.79,2,51.43.66,2.07,1.51,2.95,2.44,4.67,2.81,5.22,4.93,8.17.14,13.62-3.57,4.06-17.69,12.01-25.11,19.83-.06.06-.24.21-.3.27-8.07,5.28-22.94-1.48-17.61-10.21,1.44-2.37,2.06-2.71,3.93-4.6l9.84-8.93c2.08-1.74.66-1.3.47-3.51-1.26.29-3.95,2.79-5.05,3.76-2.17,1.91-1.83,1.3-4.68,4.13l-1.71,1.41c-1.74,1.13-6.47,6.26-6.47,8.32-1.35,3.5.31,5.12.92,7.39l-2.99-1.32c-3.24-.97-6.15-6.49-6.93-9.59-1.13-4.51,1.19-5.02,4.16-7.57l.31-.26c.84-.74.68-.81,1.85-1.27,1.87-.75,3.27-1.74,4.95-2.73,1.87-1.09,3.32-2.78,5.12-3.98-.24-.51-.51-1.85-.57-2.56-.91.21-6.25,3.81-7.78,4.74-1.36.83-2.26,1.76-3.52,2.74-.28.22-.47.38-.78.64l-.96.75c-2.24,1.61-2.92,2.96-3.29,1.99-1.17-3.08-.13-8.55.99-11.37.71-5,21.06-2.59,30.58-8.71,6.74-2.63,8.19-11.07,7.45-21.06-1.97-26.47-11.88-52.06-11.88-78.94Z"/>
      <path class="cls-9" d="m313.33,179.76c1.05-.71,1.01-.97,1.79-1.91,1.43-1.7,12.78-12.22,13.98-12.55,8.12,2.04,11.16,4.23,15.52,8.48-.17.32-22.36,10.37-28.23,14.44-.67.54-1.08.81-1.75,1.38l-.44.41c-1.01.92-.3.53-1.15.84.14-1.71.84-.75,1.04-3.47.31-4.2,1.08-4.16-.76-7.63Z"/>
      <path class="cls-3" d="m306.26,199.87c7.21,0,13.09-5.88,13.09-13.09s-5.88-13.09-13.09-13.09-13.09,5.88-13.09,13.09,5.88,13.09,13.09,13.09Z"/>
      <circle class="cls-29" cx="306.26" cy="185.65" r="15.14"/>
      <path class="cls-5" d="m297.4,186.58c0-1.25.23-1.26.18-2.23-.09-1.85.1-2.87,1.63-5.06.21-.3.37-.51.61-.81l.52-.62c1.39-1.64,1.82-1.81,5.02-1.81.86,0,2.15,1.15,2.94,1.61,2.57,1.49.52.84,1.42,2.27.73,1.15,1.65.27,2.29,2.28.23.71-.07,2.54-.1,3.8-.06,2.27-1.83,4.69-3.19,5.63-6.87,4.77-5.56,2.79-7.43,1.27-.88-.71-1.09-.26-1.96-1.45-.98-1.34-1.93-3.11-1.93-4.89Z"/>
      <path class="cls-18" d="m306.19,198.46c7.21,0,13.09-5.88,13.09-13.09s-5.88-13.09-13.09-13.09-13.09,5.88-13.09,13.09,5.88,13.09,13.09,13.09Z"/>
      <path class="cls-6" d="m306.19,197.14c6.48,0,11.77-5.29,11.77-11.77s-5.29-11.77-11.77-11.77-11.77,5.29-11.77,11.77,5.29,11.77,11.77,11.77Z"/>
      <g>
        <path class="cls-5" d="m302.29,183.03c-.39-.04-.45.82-.06.84.39.04.45-.82.06-.84Z"/>
        <path class="cls-5" d="m304.18,183.18c-.38-.05-.47.81-.08.84.38.05.47-.81.08-.84Z"/>
        <path class="cls-5" d="m309.82,183.48c-.38-.05-.47.81-.08.84.38.05.47-.81.08-.84Z"/>
        <path class="cls-5" d="m311.45,183.61c-.38-.05-.47.81-.08.84.38.05.47-.81.08-.84Z"/>
        <path class="cls-5" d="m310.5,185.99c.32.02.61-.49.63-.73.02-.24-.25-.12-.57-.14-.32-.02-.58-.17-.6.07-.02.24.22.78.54.8Z"/>
        <path class="cls-5" d="m303.11,184.68c.16.01.31-.24.32-.36,0-.12-.12-.06-.28-.07-.16-.01-.29-.09-.3.03,0,.12.11.39.27.4Z"/>
        <path class="cls-5" d="m312.4,186.85l.04,4.16c.54-.32,1.05-1.98,1.05-1.98.45.65-.36,2.03-.36,2.03.69.05,1.7.28,1.68-.75l.46-6.16c.25-3.34-.94-5.07-3.67-5.28-1.44-.11-2.83.28-4.04,1.14-1.08-2.14-4.91-2.08-6.63-.69.08-.62-.07-1.03-.79-1.06-.71.03-2.3-.54-2.26.68l-.75,10.03c-.05.61.19.89.78.93.47-.06,2.14.38,2.46-.07l1-4.89-.88-.97.84-1.32.29-2.1,1.17,1.27,1.05.14,1.36-1.14.05,2.12.64,1.42-.95,1.06.16,5.03c.52-.04,2.18.41,2.47-.16l1.55-9.25h.13s.77,1.32.77,1.32l1.22.09,1-1.18h.14s.03,2.27.03,2.27v3.3Z"/>
        <path class="cls-5" d="m303.76,184.34c.28-.05.55-.09.83-.12-.28.05-.55.09-.83.12Z"/>
        <path class="cls-5" d="m303.75,184.45c.28.03.56.06.83.11-.28-.03-.56-.06-.83-.11Z"/>
        <path class="cls-5" d="m303.74,184.59c.27.07.54.15.81.23-.27-.07-.54-.15-.81-.23Z"/>
        <path class="cls-5" d="m302.48,184.23c-.27-.07-.54-.15-.81-.24.27.07.54.15.81.24Z"/>
        <path class="cls-5" d="m302.48,184.35c-.28,0-.56,0-.84-.02.28,0,.56,0,.84.02Z"/>
        <path class="cls-5" d="m302.47,184.49c-.28.05-.55.08-.83.11.28-.05.55-.08.83-.11Z"/>
        <path class="cls-5" d="m302.29,183.03c-.39-.04-.45.82-.06.84.39.04.45-.82.06-.84Z"/>
        <path class="cls-5" d="m304.18,183.18c-.38-.05-.47.81-.08.84.38.05.47-.81.08-.84Z"/>
        <path class="cls-5" d="m309.82,183.48c-.38-.05-.47.81-.08.84.38.05.47-.81.08-.84Z"/>
        <path class="cls-5" d="m311.45,183.61c-.38-.05-.47.81-.08.84.38.05.47-.81.08-.84Z"/>
        <path class="cls-5" d="m310.5,185.99c.32.02.61-.49.63-.73.02-.24-.25-.12-.57-.14-.32-.02-.58-.17-.6.07-.02.24.22.78.54.8Z"/>
        <path class="cls-5" d="m303.11,184.68c.16.01.31-.24.32-.36,0-.12-.12-.06-.28-.07-.16-.01-.29-.09-.3.03,0,.12.11.39.27.4Z"/>
        <path class="cls-5" d="m312.4,186.85l.04,4.16c.54-.32,1.05-1.98,1.05-1.98.45.65-.36,2.03-.36,2.03.69.05,1.7.28,1.68-.75l.46-6.16c.25-3.34-.94-5.07-3.67-5.28-1.44-.11-2.83.28-4.04,1.14-1.08-2.14-4.91-2.08-6.63-.69.08-.62-.07-1.03-.79-1.06-.71.03-2.3-.54-2.26.68l-.75,10.03c-.05.61.19.89.78.93.47-.06,2.14.38,2.46-.07l1-4.89-.88-.97.84-1.32.29-2.1,1.17,1.27,1.05.14,1.36-1.14.05,2.12.64,1.42-.95,1.06.16,5.03c.52-.04,2.18.41,2.47-.16l1.55-9.25h.13s.77,1.32.77,1.32l1.22.09,1-1.18h.14s.03,2.27.03,2.27v3.3Z"/>
        <path class="cls-5" d="m303.76,184.34c.28-.05.55-.09.83-.12-.28.05-.55.09-.83.12Z"/>
        <path class="cls-5" d="m303.75,184.45c.28.03.56.06.83.11-.28-.03-.56-.06-.83-.11Z"/>
        <path class="cls-5" d="m303.74,184.59c.27.07.54.15.81.23-.27-.07-.54-.15-.81-.23Z"/>
        <path class="cls-5" d="m302.48,184.23c-.27-.07-.54-.15-.81-.24.27.07.54.15.81.24Z"/>
        <path class="cls-5" d="m302.48,184.35c-.28,0-.56,0-.84-.02.28,0,.56,0,.84.02Z"/>
        <path class="cls-5" d="m302.47,184.49c-.28.05-.55.08-.83.11.28-.05.55-.08.83-.11Z"/>
      </g>
      <path class="cls-10" d="m336.49,72.51c1.96-.37,4.46-.81,6.97-1.23,1.07.89,1.76,2.27,1.76,3.8,0,.48-.07.94-.19,1.38-1.74,1.38-3.32,2.68-4.2,3.49-.11,0-.21.01-.32.01-1.03,0-1.99-.35-2.77-.93-.53-.89-1.11-1.76-1.75-2.56-.13-.44-.19-.91-.19-1.39,0-.94.26-1.83.71-2.57Z"/>
      <path class="cls-10" d="m312.32,62.6c1.87,1.01,4.03,2.19,5.96,3.27.19.55.3,1.15.3,1.78,0,1.13-.35,2.18-.94,3.03-1.95.67-3.97,1.41-5.35,2-2.16-.58-3.75-2.62-3.75-5.03s1.61-4.48,3.79-5.04Z"/>
      <path class="cls-5" d="m339.23,78.53c.83,0,1.5-.7,1.5-1.55s-.67-1.55-1.5-1.55-1.5.7-1.5,1.55.67,1.55,1.5,1.55Z"/>
      <path class="cls-5" d="m312.42,72.06c.76,0,1.37-.64,1.37-1.42s-.62-1.42-1.37-1.42-1.37.64-1.37,1.42.62,1.42,1.37,1.42Z"/>
    </g>
    <g>
      <path class="cls-10" d="m244.13,237.56c.9.47,1.62,1.23,2.04,2.26.03.07.05.14.08.2l1.09,1.59.47,1.4c2.88,2.82,4.22,6.48,4.6,10.46,7.66-4.15,19.57-1.83,20.88,8.19.31,2.38-.38,5.22-1.5,8.02,1.91.35,3.79,1.32,5.24,2.74,4.39,4.31,3.88,10.47.46,15.2l-.32.4c-9.6,10.67-26.43,32.47-47.84,26.61-5.44-1.49-6.81-2.38-11.96-4.54-.29-.12-.96-.38-1.24-.4-.18,0-.52.09-.7.13-.84.18-1.66.35-2.5.49-4.51.72-10.43-.34-14.6-2.25-4.85-2.23-8.39-6.12-8.25-11.24l-2.98,1.83c-2.27,1.4-5.42,3.76-7.3,5.64l-.07.07-.94.85-.12.09c-3.26,2.52-6.01,6.35-8.37,9.7l-.16.23-.11.11c-.06.12-.13.25-.2.37l-.09.15-.1.15c-3.24,4.65-2.85,7.38,2.09,10.08,5.4,2.95,13.74,4.29,19.82,5.02h.11s.11.03.11.03c13.28,2.36,20.52,10.07,16.05,23.46-2.39,7.16-7.49,13.02-12.53,18.47-1.16,1.25-3.52,3.66-5.44,6.05.37-.04.75-.07,1.12-.11,2.79-.27,5.6-.6,8.38-.81.02,0,.05,0,.05,0,2.42-.26,4.18.31,5.6,2.43,1.9,2.84,3.31,5.94,2.75,9.43-.15.91-.41,1.69-.66,2.56-.04.14-.11.36-.12.53.16.55.38,1.13.54,1.69.36,1.24.61,2.5.69,3.8.2,3.33-.79,6.32-2.88,8.77-.53,9.24-6.47,14.99-15.58,16.9-7.5,1.57-16.6.53-23.92-1.51-8.8-2.45-20.73-8.17-22.77-18.02-2.19-10.59,9.92-21.8,16.92-28.23,4.13-3.8,8.47-7.45,12.46-11.39.96-.95,4.36-4.41,5-6.11-1.83-1.06-9.19-2.85-10.72-3.29-12.64-3.63-23.74-4.56-36.76-3.08-25.49,2.9-42.15,11.33-61.23,28.43-.03.02-.06.05-.08.07-.07.07-.15.15-.21.21-.16.17-.32.35-.5.53-.05.06-.11.11-.17.16-.05.05-.11.1-.16.16-.11.11-.24.21-.35.31l-3.16,3.14-.1.08c-.82.71-1.69,2.18-2.44,3.04-.3.34-1.52,1.28-1.65,1.53-.24.43.42,2.14.58,2.51,2.69,6.16,4.84,15.07-.16,20.66-.06.07-.12.14-.18.2-.07.07-.13.14-.2.2-1.57,1.57-3.48,2.68-5.57,3.4l-.16.05-6.89,1.72c-.84.32-1.58.5-2.31.49-1.38,1-2.99,1.5-4.95,1.39h-.05s-5.21-.41-5.21-.41c-.67.61-1.27,1.01-2.25,1.41l-.07.03-.07.03c-8.82,3.13-15.89,1.1-23.97-2.85-4.5-2.2-8.26-5.71-8.4-11.02-.17-6.36,5.15-12.41,9.45-16.51,3.09-2.95,6.56-5.63,9.99-8.17,2.77-2.06,5.65-4.04,8.37-6.16,1.15-.97,3.14-1.93,4.45-2.61,2.38-1.23,4.77-2.44,7.14-3.68,5.07-2.66,10.87-5.79,15.31-9.37,10.38-8.37,20.24-17.71,28.93-27.91-.91-.21-1.81-.49-2.69-.84-2.09-.83-4.57-2.74-6.6-4.03-.66.36-1.34.7-2.04.99-2.15.89-4.38,1.28-6.63.99-.04.01-.08.03-.12.04-2.58.83-4.79,1.52-7.56,1.53-4.24.02-7.78-1.72-10.15-5.08-2.6-1.05-5.49-1.67-7.85-2.97-4.05-2.23-5.09-5.97-4.75-10.31l-.81-.66c-2.8-2.3-4.4-5.52-3.38-9.13.83-2.92,3.17-5.23,5.53-7,3.85-2.88,8.88-5.24,13.66-7.1-.04-.15-.09-.31-.12-.46l-.02-.06v-.06c-.29-1.25-.47-2.49-.57-3.77-.12-1.55-.15-3.1-.1-4.65.16-5.05.81-10.24,3.08-14.82l.03-.05.03-.05c.87-1.64.88-4.52.5-6.32-.26-1.23-.93-3.27-2.39-3.54-1.75-.33-3.51-.61-5.28-.81-5.76-.66-11.55-.55-17.12,1.17-4.33,1.34-8,3.49-11.79,5.92l-.07.04-.07.04c-.68.39-1.38.63-2.16.71h-.07s-.07.01-.07.01c-.81.06-1.58-.06-2.34-.35l-.04-.02-.04-.02c-.79-.33-1.65-.7-2.3-1.25l-2.65-2.22,1.91-2.89c5.37-8.12,14-14.19,22.6-18.49,3.66-1.83,7.48-3.43,11.35-4.75,2.53-.87,5.29-1.72,7.92-2.21h.04s.04-.02.04-.02c7.2-1.17,13.91-1.24,21.07.28h.06s.06.03.06.03c7.23,1.79,13.89,5.06,15.85,12.8.09.36.17.73.24,1.11.05-.03.09-.05.14-.08,1.74-.96,3.5-1.84,5.22-2.84,1.11-.65,3.15-1.9,4.66-3.26-.15-.06-.29-.13-.44-.2-1.07-.53-2.2-.82-3.31-1.42l-.04-.02-4.02-2.28-.09-.06c-.48-.31-.79-.6-1.21-.95-1.09-.89-1.47-1.19-2.24-2.45-.53-.86-.98-1.5-1.32-2.48-.55-1.58-.37-3.16.41-4.39l-.11-.19.22.02c.46-.66,1.11-1.21,1.91-1.58-1.43-1.2-2.83-2.58-3.83-4.07-1.77-2.62-2.22-5.89.22-8.27,2.49-2.42,5.89-.3,8.69.24.93.18,2.03.33,2.93-.02-.22-3.06.23-6.04,1.04-9.07.74-2.74,1.83-5.48,2.42-8.23v-.06s1.05-4.24,1.05-4.24c0-.49-.07-1.1-.11-1.57-.12-1.23-.26-2.45-.41-3.68-.42-3.62-.84-7.23-1.16-10.85-.75-8.46-1.17-18.04.3-26.43.02-.59.03-1.18.08-1.77.14-1.78-.25-3.39.66-5.09.42-.96,1.17-1.69,2.15-2.09l.3-.16,1.56-.51.5-.03c1.14-.06,2.09.27,3.14.63,6.54,2.23,12.19,5.46,17.7,9.59,4.23,3.17,8.19,6.68,12.3,9.99,12.4-5.21,25.24-6.89,38.68-5.25,5.41.66,10.7,1.83,15.94,3.31,3.29.93,6.52,1.99,9.77,3,3.41-3,6.82-5.42,10.88-7.72,3.92-2.22,7.51-4.15,11.17-6.86,1.45-1.07,2.97-1.45,4.76-1.01l2.3.58.5,2.21c.03.07.07.14.1.21.21.44.43,1.18.69,1.56.3.46.52.86.76,1.35,8.71,17.3,9.18,38.19.96,55.75-2.32,9.72,2.02,10.4,10.9,10.3l1.1,2.11c1.33,2.54.6,5.01-.91,7.05,7.01,1.13,4.58,8.8-.62,13.36h0Zm-123.11,25.43l-.16-.08-.25-.13-.26-.13-.27-.14-.26-.14-.26-.14-.23-.13-.26-.14-.25-.14-.27-.16-.25-.15-.24-.15-.24-.15-.24-.15-.24-.16-.24-.15-.15-.1-.25-.17-.23-.16-.24-.17-.24-.17-.27-.2-.2-.15c-7.1,1.63-20.18-.44-27.53-4.09-.21,2.43-.48,4.82-.62,7.01-.1,2.27-.15,5.27,1.81,6.83.98.78,2.35,1.39,3.5,1.89,1.51.67,3.02,1.3,4.52,1.99l.41-.15.73-.27.98-.37.84-.32.93-.35.79-.3.82-.32,1.23-.48,1.35-.53,1.13-.44.62-.24c.53-.21,1.06-.42,1.58-.62l.99-.39,1.66-.66,1.77-.71,2.32-.93,3.94-1.58,1.63-.65,1.04-.41-1.02-.41.05-.13h0Zm79.32,2.97l10.86,13.33c3.5-.81,7.72,1,9.45,2.19,1.73,1.2.13-16.14,1.01-22.55-2.1,2.12-12.91,5.38-21.32,7.02Z"/>
      <path class="cls-10" d="m54.68,293.06c-.78-1.32-1.33-3.24-1.44-3.69-.24-1.09-.38-2.11-.47-3.22-.11-1.42-.12-2.8-.09-4.22.16-4.45.68-9.19,2.68-13.23,2.31-4.34,1.55-14.33-4.58-15.49-1.95-.37-3.8-.65-5.56-.86-15.64-1.8-23.77,2.77-31.44,7.67-.2.12-.38.18-.62.2-.24.02-.43-.01-.66-.1-.29-.12-1.06-.44-1.3-.64,10.07-15.23,33.08-22.62,39.35-23.79,6.76-1.1,12.92-1.18,19.64.25,16.99,4.2,13.52,13.44,12.67,27.04-.48,11.04,4.69,10.77,13.5,15.12,19.16-7,36.67-15.13,44.66-16.59,6.27-1.16,12.62,3.8,14.3,4.31l4.86,1.44c.26.09.52.16.77.21l18.76,1.21c10.46-1.51,15.9-10.17,22.91,2.42,2.4,3.41,4.02,5.9,7.67,8.96,5.77-.04,12.13,4.07,12.3,4.09,1.79-9.64,1-22.74,5.67-31.6,4.06-7.71,10.37-10.31,14.62-7.42,9.36,6.35,3.59,22.89.87,30.75,6.49-2.56,15.78.01,15.18,8.27,6.95-1.1,11.58,3.28,9.85,10.35-.97,3.95-8.76,12.11-13.94,13.27-3.09.69-3.46-.29-6.06,2.02l-1.08,1.07c-8.06,7.71-21.07-.2-29.51-3.73-3.04-1.2-2.99-.59-6.52-.02-6.29,1.01-20.66-2.34-18.04-11.57.33-1.18.66-1.24.37-2.16-.25-.79-.06.15-.24-.8h-1.26c-.93-.16-.26-.7-1.78-.94-.24.7-.16.44-.67,1.03-.72.85-1.27.69-2.27,1.24l-3.35,2.06c-2.25,1.39-6.1,4.29-8.01,6.21l-.75.68c-3.59,2.77-6.56,6.83-9.17,10.53-.47.5-.33.43-.67,1.03-10.6,15.22,11.49,19.57,24.62,21.16,14.32,2.54,15.75,10.32,13.05,18.42-4.36,13.08-19.82,22.39-21.03,30.11,1.68.12,14.15-1.24,16.53-1.43.04,0,.11,0,.15-.01,1.02-.11,1.41-.12,1.99.74,4.28,6.38.98,7.73,1.33,10.89.15,1.32,3.54,7.42-1.64,12.12.2,18.06-22.09,16.75-34.62,13.26-9.31-2.59-18.53-7.89-20.01-15.07-3.28-15.83,37.53-37.72,34.39-46.32-1.02-2.78-6.34-3.59-13.45-5.64-13.58-3.91-25.02-4.71-38.27-3.21-25.47,2.9-42.97,11.1-63.38,29.4-.04.03-.09.08-.13.11-.03.02-.34.34-.36.36-.18.19-.32.35-.46.5-.03.03-.09.08-.12.12-.04.03-.09.08-.12.12-.01.01-.24.21-.38.34l-3.12,3.1c-1.16,1-1.84,2.29-2.83,3.43-.81.94-4.28,2.22-1.7,8.12,2.02,4.63,4.26,12.34.5,16.53-.03.04-.08.09-.11.13s-.08.09-.12.12c-1.15,1.15-2.56,1.95-4.1,2.48l-6.98,1.75c-1.49.61-1.12.17-2.16-.19-.92,1.18-1.89,2-3.71,1.9l-5.24-.41c-2.87-.12-1.97.9-3.91,1.68-7.41,2.63-13.32,1.06-20.97-2.68-7.26-3.55-10.02-9.75,2.02-21.25,5.56-5.31,14.04-10.93,18.14-14.13,1.85-1.64,18.38-8.78,26.89-15.64,13.32-10.74,25.04-22.48,34.47-34.56-1.2.01-4.92.92-9.23-.8-1.22-.49-4.93-3.07-6.3-3.92-.75-.54-.75-.2-.94-1.19-1.21-.09-5.07,3.93-10.01,2.6-.44.32-.19.21-.77.4-2.34.76-10.04,3.81-13.89-2.95-7.01-3.26-12.14-2.06-11.33-10.28.07-.69.72-1.87.61-2.46-.05-.28.02-.03-.1-.3,0-.01-.23-.4-.26-.44l-2.49-.38c-8.13-6.67,7.37-14.09,18.42-17.98Z"/>
      <path class="cls-10" d="m135.91,162.73c-9.81-7.65-17.4-15.88-30.66-20.4-.33-.11-1.22-.45-1.67-.43l-.75.24c-.62.33-.29.02-.55.47-.32.57-.14,2.52-.23,3.59-.05.64-.05,1.32-.08,1.9-2.93,16.16,1.87,40.25,1.35,42.74l-1.09,4.45c-1.13,5.32-4.39,11.15-3.15,18.07-4.04,5.38-12.3.3-13.01.98-3.38,3.28,10.62,12.33,14.05,12.87-.5.64-1.37.96-2.4,1.09-2.43.32-2.2.45-4.86.26-1.42-.1-2.57-1.57-3.93-1.25-1.79.42-.23,2.43.23,3.17.58.93.55.78,1.4,1.49.38.31.37.37.86.69l3.88,2.2c1.08.58,2.09.81,3.2,1.36.75.38,1.38.48,2.16.84.72.33,1.72.44,2.26.75-1.1,7.05-15.92,11.65-16.2,13.46,4.85,3.78,21.16,7.28,28.17,4.97.15-.49.21-.51.26-1.17l.1.23c.32.76.88,1.05,1.53,1.54,4.52,3.51,9.84,5.47,16.55,7.5,3.19.96,9.39-2.1,12.91-1.46,2.79.51,5.38,5.26,8.33,5.57,7.05.75,12.46,1.25,19.92.92,7.56-.34,36.12-6.34,53.64-14.6,2.73-1.29,2.95-5.92,5.02-7.3,3.69-2.46,8.38-1.77,8.92-4.42-.11-.73.19-1.53-.96-1.56-2.48-.06-6.36.92-11.48.55,7.73-3.42,15.82-8.93,14.45-12.66-.23-.63-.31-.72-.83-.74-.39-.02-.62.2-.87.39-2.94,2.12-8.61-.27-11.09-.5.43-.55,1.32-.11,1.97-.45,3.46-1.79,9.88-5.5,8.32-8.49-6.15.07-10.87-.59-12.8-7.64l-.3-1.17c-.17-1.06.57-5.61.88-6.72,7.36-15.48,8-35.29-.76-52.68-.25-.49-.26-.54-.54-.96-.48-.73-.59-1.28-.95-2.04-.18-.38-.26-.49-.35-.89-.69-.17-1.05.02-1.51.36-9.25,6.85-13.8,6.85-23.38,15.8-13.08-3.87-37.35-13.96-65.94-.91Z"/>
      <path class="cls-13" d="m104.69,145.63c10.98,3.71,26.97,17.01,31.74,20.11,9.36-6.11,25.34-7.08,39.12-5.67,5.5.56,18.59,3.12,28.72,7.33-.15-.77-1.16-1.24.86-3.3,2.85-2.89,17.49-13.76,21.4-13.67l.94,2.67c5.97,10.79,6.5,36.85,1.84,46.67-.3.63-.54.67-.66,1.44-2.5-23.59-38.12-29.73-64.41-28.44-23.1,1.13-45.79,7.15-58.3,20.76-.42.45-1.08.94-1.62,1.25.14-.88.8-1.58.89-2.83-1.98-21.96-1.92-40.48-.52-46.33Z"/>
      <path class="cls-19" d="m226.18,200.19c1.11,11.87-8.11,18.9-18.32,22.58-17.8,6.41-30.52-7.08-45.1-8.57-13.05-1.34-25.61,16.32-39.42,17.35-6.62.49-16.29-3.49-20.5-14.51-3.29-8.63-.38-16.55,7.58-23.89,12.88-11.89,33.71-17.17,54.68-17.7,8.92-.23,39.46.46,53.72,11.91,4.11,3.3,6.87,7.5,7.37,12.83Z"/>
      <path class="cls-13" d="m240.33,231.34c-3.96,5.47-11.65,8.86-16.09,9.8.62,3.95,9.8,3.82,12.97,3.6.41-.03,1.36-.16,1.55-.05.52.28-3.35-.5-6.89,1.5-1.22.69-5.4,5.36-7.03,6.16-14.74,7.31-40.3,16.65-70.73,13.86-3.36-.31-1.39-4.19-8.58-4.7-3.85-.33-7.65,1.75-9.89,1.11-7.33-2.09-12.86-4.71-19.61-9.11-.69-.85-.62-.85-1.59-.69-.08,1.04.03.96.55,1.59.15.19.21.31.32.52-.67-.21-1.22-.77-1.82-.81-.75-.05-.29.08-.95.19-8.23,1.4-12.19-.51-19.7-2.52-.81-.22-.92-.21-1.47-.63,2.61-2.26,9.16-3.6,13.29-12.2,2.56-3.26-2.17-3.35-4.74-4.42-2-.84-3.87-1.3-5.79-2.62-.89-.61-1.72-.91-2.26-1.86,2.45.23,2.64.74,5.34.11l2.48-.62c1.43-.29,2.57-.94,4.21-.83,3.98.28,3.2.39,6.91,2.28,2.54,1.5,2.93,1.26,5.65,2.11,2.72.85,2.42.95,5.44,1.17,9.42.68,23.38-12.94,33.56-16.89,1.88-.73,2.68-.84,4.54-1.17,1.72-.39,3.64-.2,5.74.34,13.21,3.42,33.61,21.05,55.9.51.42-.39.59-.69.95-1.11.81-.96,2.99-3.95,3.9-4.12.81,5.1,6.13,9.55,11.03,9.91l.32.46c-.32.09-2.76,2.03-3.2,2.36-1.57,1.23-4.55,2.72-6.42,3.06-.67.12-2.21.86-1.25,1.74,4.88,1.56,8.12,2.82,13.31,2Z"/>
      <path class="cls-26" d="m110.23,181.03c.37,1.18,1.68,2.02,2.04,1.44,2.57-4.01,6.13-5.61,10.47-8.11,1.16-.66.63-.18,1.8-1.04.22-.16.09-.08.3-.2,2.12-1.19,4.13-1.41,1.21-4.76-3.24-3.71-18.36-14.75-20.39-12.99-.63.55,2.94,22.83,4.56,25.67Z"/>
      <path class="cls-21" d="m112.5,178.87c-.36.28-.4.92-.95.93-1.49-4.83-1.76-8.38-2.88-12.61-.21-.79-.29-1.92-.4-2.67-.25-1.67-.85-4.36-.7-6.43,3.14,1.46,17.4,9.36,17.21,13.29-.26.07-.22.1-.34.16-.04.02-.17.09-.22.12-5.01,2.7-7.01,3.23-11.72,7.22Z"/>
      <path class="cls-26" d="m228.24,185.85c.1-2.03.22-.82.24-1.82.01-.43-.11-.24.03-.98.8-4.27-3.11-19.49-4.38-23.37-.34-2.29-.93-5.02-2.92-1.81l-1.65,2.33c-.3.37-.51.71-.84,1.05-2.8,2.85-4.92,6.35-8.17,8.75l-1.67,1.4c-1.2,1.67,2.25,1.69,3.35,2.24,7.51,3.8,7.95,5.92,13.16,10.87.79.75,1.38,1.24,2.86,1.35Z"/>
      <path class="cls-21" d="m226.57,183c-.42-.03-.26-.07-.59-.44-5.35-6.57-4.93-6.11-12.29-10.04-.61-.33-.77-.65-.91-1.13-.13-.46-.3.14,0-.48.33-.34.67-.69,1-1.03.77-.92,7.53-9.3,8.62-9.51-.04.74.2.91.38,1.42,2.54,7.09,3.36,11.7,4.12,18.69.12.41.7,2.6-.35,2.53Z"/>
      <path class="cls-5" d="m224.85,285.98c.58-8,2.36-23.22,4.91-30.41,2.25-6.37,7.96-11.29,12.03-7.7,12.59,11.12-3.33,28.72-6.92,36.29.63,6.83,34.18,9.9,20.04,19.41-12.04,8.1-20.61,11.43-34.47.47,2.24-1.2,3.68-2.94-.95-3.38-1.14,3.3-25.51,5.43-22.56-5.76.61-2.31,2.36-4.69,4.34-6.65,6.22-6.17,14.12-5.41,20.69-.65,2.58,1.87,9.66,10.57,10.97,15.68,1.14-5.9-8.09-17.14-8.08-17.29Z"/>
      <path class="cls-13" d="m187.75,273.25c.23-.66.59-.72,1.57-1.53,1.52-1.26,1.81-1.09,3.03-2.17.04-.03.09-.08.12-.11,2.46-2.13,3.59-2.68,5.48.12.03.04.07.1.09.14.95,1.43,8.3,10.61,8.38,10.89-3.34-1.66-11.95,5.29-12.39,8.08-6.52-.47-6.75-7.11-10.3-6.38.2-2.76.22-4.88.3-7.39.05-1.55-.58-3-1.33-4.2l-.68-1.2c1.48.11,1.97-.15,3.36-.24,1.22-.08,1.94-.47,3.15-.48-.62.73-1.23.88-1.76,1.06-1.37.47-1.25.88-1.39,2.78,1.46.14.88.51,2.34.65Z"/>
      <path class="cls-5" d="m253.97,291.86c6.16-6.41,12.78-13.6,14.12-16.29,1.9-3.83,11.17,1.45,5.53,9.25-3.07,3.42-8.49,11.75-15.25,16.64,4.58-3.57.09-7.3-4.39-9.6h0Zm-15.2-6.19c2.91,1.95,8.49,1.96,12.98,3.8,8.14-6.36,17.56-21.3,16.79-27.2-.91-6.97-10.18-7.06-14.56-4.19-6.06,3.98-7.36,19.07-15.21,27.59Z"/>
      <path class="cls-13" d="m138.52,264.33c1.44-.46,3.42-.98,4.94-1.02,10.17.39,8.54,7.31,5.81,12.38l6.54-7.39c19.58,3.11,23.14-4.55,26.41,6.84.8,2.77,1.38,6.25.64,10.7.31-.76.57-1.34.75-1.65.21.16,4.56,5.73,4.82,6.09-11.77,8.1-18.23,16.71-27.55,27.18-1.03,6.57.79,10.27,4.14,12.67,13.51,9.7,37.13,4.09,36.18,20.77-.63,11.11-17.42,22.67-22.18,32.95-.34-1.42-.32-4.66-.89-5.96-1.97,1.03-7.28,5.97-10.17,5.82,1.65-2.88,1.9-6.43,1.9-6.54,1.3-3.34,13.25-11.73,14.76-16.07,2.24-6.44-11.74-10.03-15.99-11.15-11.09-2.9-23.24-5.79-40.64-3.6-22.03,2.77-40.96,10.99-58.37,24.9-.04.03-.09.07-.13.1l-4.45,4.13c-1.15.98-1.67,2.08-2.76,3l-.26.22c-.05.05-.19.18-.24.23l-7.73,7.82c-.44.74-.96,2.27-1.89,2.45.19-2.58,4.9-7.99,2.17-10.13-1.4.27-1.84,2.49-2.66,3.62-1.27,1.76-2.85,4.23-5.11,4.66.41-1.32.37-3.4.86-4.71.23-.62.15.64.23-.47l.26-3.57c.06-.9-.02-.08-.26-.89l-.1-.36c-.21-.53.08-.69-.69-.74-.92-.07-1.43,1.32-2.11,1.95-2.51,2.02-4.18,3.45-7.23,4.79.22-1.22-1.33-2.28-.82-2.82,31.27-15.48,49.17-39.62,59.67-51.27.67-.74,43.18-50,42.73-51.19l-1.8.76c-8.88,2.67-38.15,8.45-52.26,13.56-.17.08-.63.34-.77.4l-3.27,1.38c-.31.16-.39.26-.73.45.41-1.31,1.31-1.54,1.43-3.24-2.04-.63-3.1.48-5.37,1.27-.58.21.09.17-.96.18.88-1.58,2.15-3.29,2.28-5.1-.88-.06-1.99,0-3.06.07-1.38.08-2.7.16-3.4-.06l.03-.48c3.71-.59,7.85-1.49,12.27-2.64,18.03-4.69,40.45-13.36,55.02-20.34Z"/>
      <path class="cls-5" d="m74.94,289.69c-.02,1.91-2.49,3.4-3.46,6.45l5.92-1.45c-.7,1.56-2.85,2.74-4.71,5.56.21.01,2.19-1.04,2.02-.99-.7,3.2-.66,8.57-.71,9.29.83,1.84,3.33,18.18-8.71,15.65.75-1.2,2.02-3.08,3.15-4.04,1.95-1.65,2.23-1.92,2.41-4.43.08-1.14-1.95-.59-3.31,1.85l-1.14,2.03c-4.64,6.03-1.65,5.56-6.37,6.82-10.41,2.79-8.89-9.48-5.43-11.95,1.25-.89,2.32-1.67,3.52-2.63,1.6-1.28,2.86-1.91,3-3.75l-.95-.07c-6.94,3.11-12.7,8.63-10.4,13.91-1.82-2.43-14.47-1.38-4.99-13.15,2.76-3.43,4.07-3.38,6.48-5.4.84-.7.33-1.74.6-2.66-.52-.16-.53-.28-1.17-.32-1.75-.13-6.39,4.88-7.7,6.56-.69.88-1.16,1.87-2.04,2.53-.71-.24-.57-.31-1.2-.75-10.41-6.98,17.36-15.01,22.44-15.17,1.03-.03,9.76-3.52,12.75-3.9Z"/>
      <path class="cls-5" d="m165.97,385.98c6.44-1.02,9.56-4.22,10.55-4.54.52-.17-.19,3.49-.3,5.05-.06,1.2,2.07.5,5.95.17,6.03-.52,15.03-1.26,16.84-1.15.87.06,1.21,1.52,1.43,2.33.35,1.27.15,2.2.04,3.75-1.82-1.42-15.2-2.38-15.31-.79-.06.79,8.78,1.49,10.2,1.73,5.41.89,6.29,7.89,4.43,11.69-4.86-4.55-11.69-6.15-26.59-2.64,7.04.51,37.89-.78,21.37,14.4-5.06,4.65-22.85,1.97-27.29.78-6.71-1.8-13.36-5.24-16.79-13.14-1.62-3.74,1.52-9.63,13-21,.8-.29,3.6-3.82,4.16-4.34-.08,1.82-2.01,5.72-1.7,7.7Z"/>
      <path class="cls-5" d="m114.76,287.23c.26.27-.65-.41-.42-.07,2.67,4.4.91,10.77-1.21,15.16,10.52-11.7,17.63-18.13,16.76-18.83-.04-.03-4.54.97-15.14,3.73Z"/>
      <path class="cls-13" d="m107.99,312.21c-.03-.4.09-1.15.31-2.09.76-3.39,2.67-9.24,2.86-10.05.54-2.59.97-5.19.62-7.84-.15-.91-.34-1.69-.88-2.46-.29-.38-.52-.6-.93-.85-.08-.05-.15-.1-.21-.16-.17-.18-.24-.4-.26-.63-9.33,2.44-18.34,4.82-20.59,5.44-.91.25-4.37,1.45-6.92,2.66-4.64,2.19-6.49,6.92-4.96,13.47.81,6.29.97,8.78-1.41,12.59.44.35.52.5,1,.92,5,3.33,9.99,6.52,16.51,3.6,3.47-1.55,3.15-1.19,5.68-4.52.81-.88,4.48-4.9,9.16-10.08Z"/>
      <path class="cls-5" d="m44.58,250.47c-.94-.42-1.91-.81-2.71-.91-.13-.02-.23-.05-.35-.11-.12-.06-.19-.13-.27-.24-.06-.09-.09-.17-.11-.28-.02-.12,0-.2.02-.31.05-.14.11-.23.21-.32.02-.03.13-.09.17-.12.07-.05.19-.08.27-.11,1.95-.84,8.91-.29,8.82-.33-4.41-2.16-4.88-1.68-9.16-2.47-1.7-2.32,12.44-2.07,14.54-.75-.03-.02-.06-.03-.1-.03-.03-.01-.08.01-.11.01-.03,0-.07.05-.09.06-.03.02-.04.07-.05.09.09-.35.02-.68-.08-1.02-.16-.49-.38-.87-.66-1.3-.56-.78-1.24-1.52-2.13-1.92-4.32-1.79,3.69-.28,3.8-.27.01-.05,4.24.66,4.69.71,0,0,0,0,0,0,0,0,0,0,0,0,0,0,0,0,0,0,0,0,0,0,0,0-.01-.7-.41-1.64-.7-2.27-.21-.45-.43-.86-.72-1.27-.15-.21-.31-.41-.5-.59-2.77.08-5.56.39-8.44.91-11.31,2.21-27.17,10.97-35.54,19-5.95,5.93,3.15-8.55,29.22-6.18Z"/>
      <path class="cls-13" d="m59.95,236.71c.16.14.3.31.44.47.32.4.57.81.81,1.26.26.5,1.28,3,.41,3.28-.43.14-5.5-1.06-6.78-1.1-.58-.02.19.58.69,1.26.34.49.59.92.79,1.48.17.51.24.95.12,1.48-.03.1-.06.16-.13.24-.07.07-.13.11-.22.15-.1.04-.17.04-.27.04-.1-.01-.17-.04-.26-.09-.43-.26-.88-.36-1.37-.45-3.7-.6-11.43-.02-11.24,0,.4.04,4.83.44,7.04,1.5.76.37,1.65.69,2.35,1.06.08.04.12.09.19.14.06.04.09.11.14.16.04.04.05.12.07.17.02.09.02.16.01.25-.01.09-.04.16-.09.24-.02.05-.1.11-.14.15-.05.06-.15.08-.21.12-.06.03-.19.03-.26.05-.43.03-.96-.01-1.4-.04-.99-.05-7.46-.04-8.08.21-.02,0,4.44,1.02,5.62,2.09.63.1,2.19.4,2.83.52,8.26,1.5,10.23,12.56,6.98,18.81-1.65,3.42-2.1,8.07-2.21,11.84-.02,1.32,0,2.59.1,3.9.08.98.18,1.92.32,2.89.14.77.61,2.24.79,3.47,2.73-.89,5-1.51,6.29-1.78,1.01-.34,3.01-.54,3.49-1.12-2.34-.17-1.98-1.04-1.6-2.18,9.71-1.83,18.75-4.54,28.75-8.15-8.85-3.93-13.07-4.62-12.82-15.42.55-12.85,4.73-22.28-11.3-26.01-3.51-.69-6.48-.98-9.86-.9Z"/>
      <path class="cls-5" d="m45.36,390.64c1.12.06.54.04,1.17-.19l1.87-.93c.67-.5.06-.47,1.14-.49,2.51,1.19-.17,4.87,3.95,4.83.81,4.22,5.77,11.74.92,16.27-2.11,1.97-3.34,1.34-5.38,2.28-.56.26-2.4.8-3.15.74-.93-.07-.54-.58-.5-1.03,1.47-7.27-3.95-11.78-4-12.92l-.48-.03c-.49,3.16,6.54,16.11-1.16,15.63l-5.94-.13c.22-3.1-.2-11.49-1.93-14.16-.43-.67-1.04-.92-1.23-1.61-1.01.64-.76,1.43-.34,2.3.03.06.12.25.15.32l.24.47c1.15,2,1.28,8.14,1.03,10.68-.23,1.8-1.75,3.63-3.56,4.22-7.73,2.53-32.99-2.4-15.03-19.56,5.99-5.72,14.28-11.74,17.5-14.18,1.04-.79,2.46-1.89,3.92-1.91-.1,1.36.05,1.59.31,2.63.27,1.08.3,1.28,1.03,2.01,1.11-.01.39-.12,1.33-.27,4.15-.67,5.06-2.2,8.58-4.52-.08,1.08-.08,1.98-.35,2.96-.34,1.24-.13,1.45-.44,2.57-.33,1.2-.97,1.85-.35,3.01.02.03.06.1.08.12l.61.86Z"/>
      <path class="cls-5" d="m137.85,241.5s-3.4-4.6-1.86-6.96c6.12-9.37,17.22-16.67,25.11-17.32,11.09-.91,18.65,5.88,33.67,11.79,8.07,3.17,11.83,6.23,4.53,15.35-17.71,22.15-47.43,23.03-61.45-2.87Z"/>
      <path class="cls-26" d="m168.79,232.41c.26-.47.34-.55.78-.77,2.87-1.45,5.44-2.97,5.41-6.46-.02-3.09-2.09-3.78-4.63-5.03-4.38-2.16-11.07-1.13-14.96,1.74-1.32.98-2.37,4.31-.84,5.73,3,3.96,11.35,4.16,11.34,4.22l.04,7.54c-.71,14.87-20.04,6.8-21.72-3.79,1.56-.89,2.2-3.28,3.08-4.72.77-1.24.14-.6.1-1.61-.68-.05-1.22.43-1.71.87-1.63,2.14-4.38,4.74-7,5.51-.58.17-.68.28-1.16.5l-.09,1.19c.54.17.88.35,1.47.4.08,0,.71.04.74.04.79-.04,1.96-1.1,2.96-1.26,4.63,14.66,15.19,13.39,18.63,13.62,2.66,3.67,8.46,7.4,12.32,1.39.29-.63.51-1.23.83-1.8,10.47,1.37,16.42-2.54,19.59-12.46,1.11-2.35.71-2.47,3.22-1.24,2.2,1.08,4.22.58,4.32-.71-.2.73-9.04-3.19-9.94-5.71-.91-.67-.77-.26-1.75-.08-.09,1.3.33,1.54,1.2,2.31.62.55,1.38,1.04,1.98,1.63.54.53.55.49.42,1.12-3.61,20.6-33.2,15.22-24.65-2.17Z"/>
      <path class="cls-27" d="m155.97,225.13c.13-1.84,6.77-4.07,8.97-3.99,3.43.13,11.01,2.23,6.52,6.81-1.04,1.07-3.42,2.03-4.89,2-3.78-.09-10.74-2.97-10.61-4.81Z"/>
      <path class="cls-1" d="m163.06,248.56c1.83-.81,2.71-2.72,3.72-4.33,1.37,1.07.52,2.2,3.93,4.07,1.1.6,1.53.54,1.49,1.1-.04.51-1.43,2-1.82,2.3-1.2.93-4.23.79-5.75-.84-.58-.63-1.41-1.4-1.58-2.29Z"/>
      <path class="cls-12" d="m136.23,296.42c5.19-8.04,8.52-9.79,13.25-16.27.21-.32.46-.6.69-.93,8.1-8.39,30.2-11.21,29.14,3.58-.49,6.85-34.72,60.04-50.69,45-4.58-4.31-2.82-15.21,7.61-31.38Z"/>
      <path class="cls-10" d="m166.74,312.18c-.88,1.19-2.5,4.94-3.4,6.2-.64,4.63.67,7.18,1.6,9.88l-29.26.46-35.92-5.03c2.65-3.84,9.04-10.25,12.5-15.3l25.98,5.17,28.5-1.37Z"/>
      <path class="cls-8" d="m163.49,314.59c-.86.93-1.73,1.89-2.61,2.87-.57,3.67-.26,6.45.71,8.6l-25.78.8-33.02-5.02c2.59-3.01,5.75-6.71,9.13-10.67l25.97,4.39,25.59-.98Z"/>
      <g>
        <path class="cls-22" d="m136.86,332.83c-6.63-.48-11.62-6.24-11.14-12.87.48-6.63,6.24-11.62,12.87-11.14,6.63.48,11.62,6.24,11.14,12.87-.48,6.63-6.24,11.62-12.87,11.14Z"/>
        <path class="cls-5" d="m129.62,320.06c.08-1.15.29-1.14.31-2.03.04-1.7.28-2.63,1.83-4.53.21-.26.37-.45.61-.7l.52-.53c1.38-1.41,1.79-1.54,4.72-1.33.79.06,1.9,1.2,2.59,1.67,2.26,1.53.42.81,1.15,2.17.59,1.1,1.5.36,1.95,2.25.16.67-.23,2.32-.35,3.48-.2,2.08-1.99,4.18-3.3,4.95-6.61,3.92-5.28,2.19-6.9.67-.76-.71-.98-.31-1.71-1.46-.81-1.29-1.57-2.98-1.45-4.61Z"/>
        <g>
          <path class="cls-10" d="m136.8,333.67c-7.67-.55-13.43-7.22-12.88-14.88s7.22-13.43,14.88-12.88c7.67.55,13.43,7.22,12.88,14.88-.55,7.67-7.22,13.43-14.88,12.88Z"/>
          <path class="cls-15" d="m138.63,307.52c6.63.48,11.62,6.24,11.14,12.87-.48,6.63-6.24,11.62-12.87,11.14-6.63-.48-11.62-6.24-11.14-12.87.48-6.63,6.24-11.62,12.87-11.14Z"/>
        </g>
        <path class="cls-6" d="m138.53,308.89c5.87.42,10.29,5.53,9.86,11.4-.42,5.87-5.53,10.29-11.4,9.86-5.87-.42-10.29-5.53-9.86-11.4.42-5.87,5.53-10.29,11.4-9.86Z"/>
      </g>
      <g>
        <path class="cls-10" d="m157.38,230.93c.44.03.78.42.74.86-.03.44-.42.78-.86.74-.44-.03-.78-.42-.75-.86.03-.44.42-.78.86-.74Z"/>
        <path class="cls-10" d="m153.45,235.37c.44.03.78.42.74.86-.03.44-.42.78-.86.75-.44-.03-.78-.42-.74-.86.03-.44.42-.78.86-.74Z"/>
        <path class="cls-10" d="m156.44,240.43c.44.03.78.42.74.86-.03.44-.42.78-.86.74-.44-.03-.78-.42-.74-.86.03-.44.42-.78.86-.75Z"/>
        <path class="cls-10" d="m157.95,236.69c.44.03.78.42.74.86-.03.44-.42.78-.86.75-.44-.03-.78-.42-.74-.86.03-.44.42-.78.86-.74Z"/>
        <path class="cls-10" d="m151.88,241.71c.44.03.78.42.74.86-.03.44-.42.78-.86.74-.44-.03-.78-.42-.74-.86.03-.44.42-.78.86-.75Z"/>
        <path class="cls-10" d="m159.13,244.47c.44.03.78.42.74.86-.03.44-.42.78-.86.75-.44-.03-.78-.42-.74-.86.03-.44.42-.78.86-.75Z"/>
        <path class="cls-10" d="m162.33,236.26c.44.03.78.42.74.86-.03.44-.42.78-.86.74-.44-.03-.78-.42-.74-.86.03-.44.42-.78.86-.74Z"/>
        <path class="cls-10" d="m148.73,239.1c.44.03.78.42.74.86-.03.44-.42.78-.86.75-.44-.03-.78-.42-.74-.86.03-.44.42-.78.86-.74Z"/>
        <path class="cls-10" d="m163.65,240.72c.44.03.78.42.74.86-.03.44-.42.78-.86.74-.44-.03-.78-.42-.74-.86.03-.44.42-.78.86-.74Z"/>
        <path class="cls-10" d="m149.87,234.42c.44.03.78.42.74.86-.03.44-.42.78-.86.74-.44-.03-.78-.42-.74-.86.03-.44.42-.78.86-.75Z"/>
      </g>
      <g>
        <path class="cls-10" d="m178.64,231.24c-.44-.03-.83.3-.86.74-.03.44.3.83.74.86.44.03.83-.3.86-.75.03-.44-.3-.83-.74-.86Z"/>
        <path class="cls-10" d="m181.88,236.2c-.44-.03-.83.3-.86.75-.03.44.3.83.74.86.44.03.83-.3.86-.74.03-.44-.3-.83-.74-.86Z"/>
        <path class="cls-10" d="m178.2,240.77c-.44-.03-.83.3-.86.75-.03.44.3.83.74.86.44.03.83-.3.86-.74.03-.44-.3-.83-.74-.86Z"/>
        <path class="cls-10" d="m177.24,236.85c-.44-.03-.83.3-.86.74-.03.44.3.83.74.86.44.03.83-.3.86-.75s-.3-.83-.74-.86Z"/>
        <path class="cls-10" d="m182.53,242.7c-.44-.03-.83.3-.86.74-.03.44.3.83.74.86.44.03.83-.3.86-.74.03-.44-.3-.83-.74-.86Z"/>
        <path class="cls-10" d="m174.96,244.39c-.44-.03-.83.3-.86.75-.03.44.3.83.74.86.44.03.83-.3.86-.75.03-.44-.3-.83-.74-.86Z"/>
        <path class="cls-10" d="m172.97,235.8c-.44-.03-.83.3-.86.75-.03.44.3.83.74.86.44.03.83-.3.86-.74s-.3-.83-.74-.86Z"/>
        <path class="cls-10" d="m186.02,240.57c-.44-.03-.83.3-.86.74-.03.44.3.83.74.86.44.03.83-.3.86-.74.03-.44-.3-.83-.74-.86Z"/>
        <path class="cls-10" d="m171.03,240.03c-.44-.03-.83.3-.86.74-.03.44.3.83.74.86.44.03.83-.3.86-.74.03-.44-.3-.83-.74-.86Z"/>
        <path class="cls-10" d="m185.56,235.77c-.44-.03-.83.3-.86.74-.03.44.3.83.74.86.44.03.83-.3.86-.74s-.3-.83-.74-.86Z"/>
      </g>
      <path class="cls-5" d="m160.67,223.14c1.43-.95,5.14-2.34,6.75.64.22.4.32,1.75-.75,1.32-6.32-2.52-5.93,2.24-7.17.65-.48-.61-.31-1.63,1.17-2.62Z"/>
      <g>
        <path class="cls-5" d="m134.09,317.9c-.34-.07-.47.69-.13.74.34.07.47-.69.13-.74Z"/>
        <path class="cls-5" d="m135.76,318.19c-.34-.07-.48.68-.14.74.34.07.48-.68.14-.74Z"/>
        <path class="cls-5" d="m140.75,318.94c-.34-.07-.49.68-.14.74.34.07.48-.68.14-.74Z"/>
        <path class="cls-5" d="m142.2,319.19c-.34-.07-.49.68-.14.74.34.07.48-.68.14-.74Z"/>
        <path class="cls-5" d="m141.15,321.23c.28.05.59-.38.62-.59.04-.21-.21-.13-.49-.17-.28-.05-.5-.2-.54,0-.04.21.13.71.41.76Z"/>
        <path class="cls-5" d="m134.68,319.44c.14.02.29-.19.31-.3.02-.11-.11-.06-.25-.09s-.25-.1-.27,0c-.02.11.06.36.2.38Z"/>
        <path class="cls-5" d="m142.77,322.15l-.31,3.71c.51-.24,1.1-1.67,1.1-1.67.35.62-.49,1.78-.49,1.78.61.11,1.49.39,1.56-.52l.93-5.44c.51-2.96-.41-4.59-2.82-5.01-1.27-.22-2.54,0-3.7.68-.78-2-4.2-2.26-5.84-1.17.13-.55.02-.93-.62-1.01-.64-.03-2-.67-2.07.42l-1.52,8.87c-.09.54.09.81.62.89.43-.01,1.87.52,2.2.15l1.3-4.27-.71-.93.86-1.1.43-1.85.94,1.23.92.21,1.3-.9-.13,1.89.45,1.32-.94.86-.28,4.49c.46,0,1.91.55,2.22.07l2.16-8.11.11.02.58,1.23,1.08.18.99-.97.13.02-.16,2.01-.28,2.94Z"/>
        <path class="cls-5" d="m135.29,319.19c.25-.02.5-.03.75-.04-.25.02-.5.03-.75.04Z"/>
        <path class="cls-5" d="m135.27,319.29c.25.05.49.1.73.17-.25-.05-.49-.1-.73-.17Z"/>
        <path class="cls-5" d="m135.25,319.41c.24.08.47.17.7.28-.24-.08-.47-.17-.7-.28Z"/>
        <path class="cls-5" d="m134.16,318.99c-.24-.09-.47-.18-.7-.28.24.09.47.18.7.28Z"/>
        <path class="cls-5" d="m134.15,319.09c-.25-.02-.5-.05-.75-.09.25.02.5.05.75.09Z"/>
        <path class="cls-5" d="m134.12,319.21c-.25.02-.5.03-.75.03.25-.02.5-.03.75-.03Z"/>
        <path class="cls-5" d="m134.09,317.9c-.34-.07-.47.69-.13.74.34.07.47-.69.13-.74Z"/>
        <path class="cls-5" d="m135.76,318.19c-.34-.07-.48.68-.14.74.34.07.48-.68.14-.74Z"/>
        <path class="cls-5" d="m140.75,318.94c-.34-.07-.49.68-.14.74.34.07.48-.68.14-.74Z"/>
        <path class="cls-5" d="m142.2,319.19c-.34-.07-.49.68-.14.74.34.07.48-.68.14-.74Z"/>
        <path class="cls-5" d="m141.15,321.23c.28.05.59-.38.62-.59.04-.21-.21-.13-.49-.17-.28-.05-.5-.2-.54,0-.04.21.13.71.41.76Z"/>
        <path class="cls-5" d="m134.68,319.44c.14.02.29-.19.31-.3.02-.11-.11-.06-.25-.09s-.25-.1-.27,0c-.02.11.06.36.2.38Z"/>
        <path class="cls-5" d="m142.77,322.15l-.31,3.71c.51-.24,1.1-1.67,1.1-1.67.35.62-.49,1.78-.49,1.78.61.11,1.49.39,1.56-.52l.93-5.44c.51-2.96-.41-4.59-2.82-5.01-1.27-.22-2.54,0-3.7.68-.78-2-4.2-2.26-5.84-1.17.13-.55.02-.93-.62-1.01-.64-.03-2-.67-2.07.42l-1.52,8.87c-.09.54.09.81.62.89.43-.01,1.87.52,2.2.15l1.3-4.27-.71-.93.86-1.1.43-1.85.94,1.23.92.21,1.3-.9-.13,1.89.45,1.32-.94.86-.28,4.49c.46,0,1.91.55,2.22.07l2.16-8.11.11.02.58,1.23,1.08.18.99-.97.13.02-.16,2.01-.28,2.94Z"/>
        <path class="cls-5" d="m135.29,319.19c.25-.02.5-.03.75-.04-.25.02-.5.03-.75.04Z"/>
        <path class="cls-5" d="m135.27,319.29c.25.05.49.1.73.17-.25-.05-.49-.1-.73-.17Z"/>
        <path class="cls-5" d="m135.25,319.41c.24.08.47.17.7.28-.24-.08-.47-.17-.7-.28Z"/>
        <path class="cls-5" d="m134.16,318.99c-.24-.09-.47-.18-.7-.28.24.09.47.18.7.28Z"/>
        <path class="cls-5" d="m134.15,319.09c-.25-.02-.5-.05-.75-.09.25.02.5.05.75.09Z"/>
        <path class="cls-5" d="m134.12,319.21c-.25.02-.5.03-.75.03.25-.02.5-.03.75-.03Z"/>
      </g>
      <path class="cls-13" d="m89,217.27c3.66.26,6,1.85,9.34-.33.45-.3.44-.37,1.1-.38,1.19,5.52,4.19,8.9,4.16,9.55-3.78-.27-14.52-7.47-14.6-8.84Z"/>
      <path class="cls-10" d="m170.02,213.17c.76-2.35,15.52-13,18.3-13.79,4.1-1.17,16.07-.66,20.84-.72-.78,2.38-13.78,13.73-16.22,14.4-4.54,1.25-19.22,1.33-22.92.11Z"/>
      <path class="cls-5" d="m174.15,211.64c.6-1.73,12.18-9.59,14.37-10.17,3.22-.86,12.61-.49,16.35-.53-.61,1.76-10.82,10.13-12.73,10.62-3.56.92-15.08.98-17.99.08Z"/>
      <path class="cls-16" d="m182.53,204.91c2.64-1.75,5.09-3.2,5.99-3.44,1.3-.35,3.6-.5,6.13-.55,1.24,1.28,2.01,3.02,2.01,4.95,0,1.22-.31,2.37-.85,3.38-1.66,1.24-3.07,2.16-3.66,2.32-1.22.32-3.37.53-5.78.64-2.31-1.17-3.89-3.57-3.89-6.33,0-.33.02-.65.06-.96Z"/>
      <circle class="cls-28" cx="189.44" cy="208.11" r="2.3"/>
      <path class="cls-10" d="m133.6,201.19c2.58-.56,7.04-.35,9.39.88,5.49,2.86,11.1,5.03,16.69,8.23-.68.87-.6.78-1.71,1.17-4.45,1.55-8.49,3.4-13.52,5.33-6.59,3.66-28.08-9.68-29.71-12.54,6.5-1.09,12.35-2.32,18.86-3.07Z"/>
      <path class="cls-5" d="m134.35,202.85c2.04-.45,5.57-.27,7.43.69,4.34,2.27,8.78,3.98,13.2,6.51-.54.69-.47.62-1.35.93-3.52,1.23-6.72,2.69-10.7,4.22-5.21,2.89-22.22-7.66-23.5-9.92,5.14-.86,9.77-1.83,14.92-2.43Z"/>
      <path class="cls-16" d="m134.99,202.74c2.08-.29,5.11-.07,6.79.81.7.36,1.4.71,2.1,1.05.96,1.21,1.53,2.74,1.53,4.41,0,3.09-1.97,5.71-4.72,6.69-2.1.02-4.86-.8-7.69-2-1.1-1.25-1.77-2.89-1.77-4.69,0-2.72,1.53-5.08,3.77-6.27Z"/>
      <circle class="cls-28" cx="139.1" cy="211.52" r="2.3"/>
      <path class="cls-23" d="m187.1,180.58c13.82,2.47,45.91,7.27,33.15,27.14,5.55-18.04-19.56-23.51-33.15-27.14Z"/>
    </g>
    <path class="cls-23" d="m327.25,53.14c13.79,2.63,45.82,7.79,32.84,27.52,5.75-17.97-19.3-23.73-32.84-27.52Z"/>
  </g>
</svg>