<?xml version="1.0" encoding="UTF-8"?>
<svg id="Camada_2" data-name="Camada 2" xmlns="http://www.w3.org/2000/svg" viewBox="0 0 412.31 171.38">
  <defs>
    <style>
      .cls-1 {
        font-size: 96.77px;
      }

      .cls-1, .cls-2 {
        font-family: PuffinDisplaySoft-Bold, 'Puffin Display Soft';
        font-weight: 700;
      }

      .cls-1, .cls-3 {
        fill: #e8402b;
      }

      .cls-4 {
        letter-spacing: .01em;
      }

      .cls-2 {
        font-size: 56.45px;
        letter-spacing: .2em;
      }

      .cls-2, .cls-5 {
        fill: #f1860b;
      }

      .cls-6 {
        letter-spacing: .03em;
      }
    </style>
  </defs>
  <g id="Versao2">
    <text class="cls-2" transform="translate(90.44 154.51)"><tspan x="0" y="0">ONLINE</tspan></text>
    <g>
      <text class="cls-1" transform="translate(152.49 92.31)"><tspan class="cls-6" x="0" y="0" xml:space="preserve">Y   </tspan><tspan class="cls-4" x="140.7" y="0">E</tspan><tspan class="cls-6" x="201.38" y="0">T</tspan></text>
      <path class="cls-3" d="m266.84,21.45h-19.06c-2.41,0-3.47.96-3.47,3.47v8.28h22.91c9.72,0,12.3,3.78,12.3,12.25s-2.57,13.55-12.3,13.55h-22.91v29.85c0,2.5,1.06,3.47,3.47,3.47h6.45c2.41,0,3.37-1.06,3.37-3.47v-18.1h9.24c18.87,0,28.79-8.47,28.79-24.65s-9.92-24.65-28.79-24.65Z"/>
      <g>
        <ellipse class="cls-5" cx="262.83" cy="42.09" rx="5.06" ry="3.15"/>
        <ellipse class="cls-5" cx="262.83" cy="49.43" rx="5.06" ry="3.15"/>
        <ellipse class="cls-5" cx="256.61" cy="54.22" rx="2.48" ry="4" transform="translate(93.5 259.61) rotate(-63.48)"/>
        <ellipse class="cls-5" cx="256.61" cy="37.42" rx="4" ry="2.48" transform="translate(8.61 113.23) rotate(-25.29)"/>
        <path class="cls-5" d="m255.88,46.08c0,2.97-5.24,8.33-8.84,7.87-4.33-.56-1.24-5.19-1.24-8.16s-3.13-6.55,1.03-7.41c3.56-.73,9.05,4.73,9.05,7.7Z"/>
      </g>
    </g>
    <g>
      <path class="cls-3" d="m38.8,39.82c-3.19-.08-3.19,6.99,0,6.91,3.19.08,3.19-6.99,0-6.91Z"/>
      <path class="cls-3" d="m54.41,39.83c-3.18-.15-3.35,6.92-.16,6.91,3.18.15,3.35-6.92.16-6.91Z"/>
      <path class="cls-3" d="m100.87,38.89c-3.18-.15-3.35,6.92-.16,6.91,3.18.15,3.35-6.92.16-6.91Z"/>
      <path class="cls-3" d="m114.41,38.89c-3.18-.15-3.35,6.92-.16,6.91,3.18.15,3.35-6.92.16-6.91Z"/>
      <path class="cls-3" d="m108.08,59.05c2.62,0,4.75-4.38,4.75-6.36s-2.12-.82-4.75-.82-4.89-1.07-4.89.91,2.27,6.27,4.89,6.27Z"/>
      <path class="cls-3" d="m46.53,52.86c1.31,0,2.37-2.19,2.37-3.18s-1.06-.41-2.37-.41-2.45-.53-2.45.46,1.14,3.13,2.45,3.13Z"/>
      <path class="cls-3" d="m124.18,64.96l2.92,34.13c4.26-2.95,7.42-16.89,7.42-16.89,4.1,5.1-1.7,16.89-1.7,16.89,5.73,0,14.16,1.21,13.34-7.17,0,0,0-50.86,0-50.86,0-27.61-10.84-41.07-33.38-41.07-11.88,0-23.07,4.02-32.51,11.88-10.19-16.9-41.62-14.04-54.88-1.57.31-5.16-1.21-8.45-7.17-8.21C12.4,2.8-.97-.9.06,9.09c0,0,0,82.84,0,82.84,0,5.07,2.1,7.17,6.99,7.17,3.85-.76,17.79,1.79,20.18-2.07l5.16-40.78-7.85-7.38,6.09-11.37,1.05-17.46,10.43,9.73,8.67.47,10.43-10.19,1.76,17.34,6.09,11.25-7.16,9.26h0l4.46,41.21c4.22-.67,18.16,2.06,20.22-2.84h0l7.02-76.94h1.05l7.15,10.31h10.08l7.5-10.31h1.17l1.64,18.51"/>
      <path class="cls-3" d="m51.7,49.63c2.22-.66,4.47-1.16,6.76-1.49-2.22.66-4.47,1.16-6.76,1.49h0Z"/>
      <path class="cls-3" d="m51.62,50.58c2.31-.05,4.62.07,6.92.36-2.31.05-4.62-.07-6.92-.36h0Z"/>
      <path class="cls-3" d="m51.69,51.75c2.29.31,4.56.78,6.78,1.41-2.29-.3-4.56-.78-6.78-1.41h0Z"/>
      <path class="cls-3" d="m41.12,49.56c-2.29-.33-4.55-.83-6.76-1.49,2.29.33,4.55.83,6.76,1.49h0Z"/>
      <path class="cls-3" d="m41.2,50.51c-2.3.29-4.6.41-6.92.36,2.3-.29,4.6-.41,6.92-.36h0Z"/>
      <path class="cls-3" d="m41.13,51.68c-2.23.63-4.49,1.11-6.78,1.41,2.22-.64,4.49-1.11,6.78-1.41h0Z"/>
    </g>
  </g>
</svg>